<?xml version="1.0" encoding="UTF-8"?>
<svg id="Layer_1" data-name="Layer 1" xmlns="http://www.w3.org/2000/svg" xmlns:xlink="http://www.w3.org/1999/xlink" viewBox="0 0 1024.42 236.23">
  <defs>
    <style>
      .cls-1 {
        fill: url(#radial-gradient-2);
      }

      .cls-2, .cls-3 {
        fill: #3970b7;
      }

      .cls-4 {
        fill: url(#radial-gradient);
      }

      .cls-5, .cls-6, .cls-7 {
        fill: #0073e5;
      }

      .cls-8 {
        fill: #e0f0fc;
      }

      .cls-6, .cls-9 {
        clip-rule: evenodd;
      }

      .cls-10 {
        clip-path: url(#clippath-1);
      }

      .cls-11 {
        clip-path: url(#clippath-3);
      }

      .cls-12 {
        clip-path: url(#clippath-4);
      }

      .cls-13 {
        clip-path: url(#clippath-2);
      }

      .cls-14 {
        clip-path: url(#clippath-7);
      }

      .cls-15 {
        clip-path: url(#clippath-6);
      }

      .cls-16 {
        clip-path: url(#clippath-5);
      }

      .cls-7, .cls-17, .cls-3 {
        fill-rule: evenodd;
      }

      .cls-18 {
        stroke: #15182f;
        stroke-width: 3px;
      }

      .cls-18, .cls-19 {
        fill: none;
        stroke-miterlimit: 10;
      }

      .cls-19 {
        stroke: #0073e5;
        stroke-width: 1.85px;
      }

      .cls-20 {
        fill: #fff;
      }

      .cls-17, .cls-21, .cls-9 {
        fill: #22c55e;
      }

      .cls-22 {
        clip-path: url(#clippath);
      }
    </style>
    <clipPath id="clippath">
      <polygon class="cls-9" points="34.18 87.75 34.18 117.35 26.7 117.35 26.7 104.19 11.5 117.35 0 117.35 34.18 87.75"/>
    </clipPath>
    <clipPath id="clippath-1">
      <rect class="cls-21" x="62.43" y="87.73" width="7.48" height="29.62"/>
    </clipPath>
    <clipPath id="clippath-2">
      <rect class="cls-21" x="38.65" y="87.73" width="7.48" height="29.62"/>
    </clipPath>
    <clipPath id="clippath-3">
      <rect class="cls-21" x="36.84" y="87.73" width="22.69" height="7.48"/>
    </clipPath>
    <clipPath id="clippath-4">
      <rect class="cls-21" x="36.84" y="98.9" width="22.69" height="7.48"/>
    </clipPath>
    <clipPath id="clippath-5">
      <rect class="cls-21" x="36.84" y="109.95" width="22.69" height="7.48"/>
    </clipPath>
    <clipPath id="clippath-6">
      <polyline class="cls-9" points="29.16 105.4 29.16 113.24 19.92 113.24"/>
    </clipPath>
    <clipPath id="clippath-7">
      <path class="cls-6" d="M49.79,144.54c22.69-1.54,39.83-21.18,38.29-43.86-1.54-22.69-21.18-39.83-43.86-38.29-22.69,1.54-39.83,21.18-38.29,43.86,0,.06.01.12.01.18l11.96-10.3c3.64-11.54,14.24-22.02,27.04-22.89,16.69-1.13,31.14,11.48,32.27,28.17,1.13,16.69-11.48,31.14-28.17,32.27-10.21.69-19.58-3.76-25.58-11.14-1.28-1.58-3.21.53-4.16-1.29l-3.53.49-1.61,1.6.93,2.94c1.24,1.97-.33,2.9,1.21,4.62,8.17,9.13,20.31,14.54,33.49,13.64"/>
    </clipPath>
    <radialGradient id="radial-gradient" cx="510.68" cy="100.94" fx="510.68" fy="100.94" r="83.78" gradientUnits="userSpaceOnUse">
      <stop offset=".11" stop-color="#00adee"/>
      <stop offset=".14" stop-color="#00a8e8"/>
      <stop offset=".55" stop-color="#08609f"/>
      <stop offset=".74" stop-color="#0b4583"/>
      <stop offset=".9" stop-color="#0d0055"/>
      <stop offset="1" stop-color="#97ffff"/>
    </radialGradient>
    <radialGradient id="radial-gradient-2" cx="510.9" cy="93.83" fx="510.9" fy="93.83" r="75.86" gradientUnits="userSpaceOnUse">
      <stop offset="0" stop-color="#fff"/>
      <stop offset=".4" stop-color="#00a5e4"/>
      <stop offset=".53" stop-color="#0080bd"/>
      <stop offset=".67" stop-color="#005a95"/>
      <stop offset=".77" stop-color="#074c89"/>
      <stop offset=".81" stop-color="#0b4583"/>
      <stop offset=".84" stop-color="#0d4684"/>
      <stop offset=".85" stop-color="#144c88"/>
      <stop offset=".87" stop-color="#22568e"/>
      <stop offset=".87" stop-color="#356598"/>
      <stop offset=".88" stop-color="#4d77a4"/>
      <stop offset=".89" stop-color="#6b8eb4"/>
      <stop offset=".9" stop-color="#8faac6"/>
      <stop offset=".9" stop-color="#b9c9db"/>
      <stop offset=".91" stop-color="#e7ecf2"/>
      <stop offset=".91" stop-color="#fff"/>
    </radialGradient>
  </defs>
  <g>
    <g>
      <g>
        <path class="cls-5" d="M661.78,117.27c3.92-1.6,10.52-1.6,13.9-4.11-5.09,1.82-17.7,1.79-18.8,3.66-.74,1.27-2.04,4.27-.99,5.69,1.45,1.96,7.84,9.1,8.12,11.12.31,2.28,2.11,3.46,4.37,3.26,1.06-.09,2.54,1.45,3.44,2,2.01,1.22,10.16,4.29,7.91-.56-.79-1.7-1.47-3.87-2.72-5.29-1.2-1.36-3.4.71-4.81-.17-1.37-.86-11.41-9.32-10.5-11.31.77-1.7,9.51,1.22,13.84,2.41,3.64,1,8.98,3.07,11.3,1.51,1.64-1.11,3.73-4.28,3.81-6.57-5.8,11.41-22.81-1.12-28.87-1.65Z"/>
        <path class="cls-5" d="M669.84,99.96c-3.34-3.26-12.92-5.54-17.97-2.83,6.51-1.15,11.15,1.85,13.82,5.61,2.69,3.79-1.07,13.39,2.96,12.09-2.07-4.37,5.84-10.34,1.19-14.87Z"/>
        <path class="cls-5" d="M659.35,121.32c2.96,2.35,11.2,5.12,16.52,4.43-5.01-1.1-11.83-2.65-16.52-4.43Z"/>
      </g>
      <g>
        <path class="cls-5" d="M641.61,87.35c-2.93,2.24-.18,4.74-2.48,7.18,1.32-3.46-1.79-5.97,2.48-7.18Z"/>
        <path class="cls-5" d="M636.95,84.79c1.05-1.11,2.54-1.07,3.27-2.52,1.56-3.09,5.69-7.31,6.57-7.48.7-.14.47,4.16-.65,6.31-1.12,2.15-3.68,2.77-2.01,5.07-2.42-1.61-.14-3.37.68-4.21.74-.75,1.01-1.54,1.2-2.73-.71,1.5-2.48,3.14-2.94,3.11-.26-.02.63-1.89,1.06-2.75.46-.94,1.23-1.62,1.6-2.69-1.21,1.17-2.63,2.43-3.39,3.7-.92,1.53-.86,2.34-2.01,3.18-1.16.84-3.03,1.18-4.09,4.54.35-.21,1.11-.38,1.48-.4-.92.46-3.19,1.62-3.51,2.89-.32,1.27,1.33,3.22,1.7,4.17.61,1.53,1.32,3.88.79,5.67-.14-4.18-1.7-5.53-2.57-6.72-1.36,1.45-3.23,5.18-4.15,7.67-.7,1.91-1.11,4.27-2.32,5.64-1.35,1.53-1.18,2.98-.71,3.33.47.35,1.04.26,1.15-.35.08-.45-1.25-.74-.44-1.45.59-.51,1.79.3,1.84,1.13.11,1.74-1.46,3.33.43,4.24,1.72.83.62-2.92,4.87-5.26-.55,2.21-1.01,5.47-.57,5.63.43.16.48-.48.81-.49.68-.03,1.07-.32.99-1.16-.15-1.54-.44-2.57,1.17-4.19-.27.6-.32.97-.32,1.39,1.68-1.31,2.46-4.72,4.46-5.82-1.96-.45-2.06,1.34-2.86,1.58.53-1.65.07-2.77-.66-3.52,5.83,1.78,11.55-.86,11.36-6.2,3.49,6.94-2.77,7.63-5.22,9.2-1.82,1.17-3,1.83-4.39,3.12-1.45,1.34-2.36,2.16-2.63,3.13-.17.61.32,1.07.33,1.8.01.73-.37,1.29-.64,1.55-.61.58-1.36.45-1.98.67-.5.18-1.71,1.33-1.97.54-.11-.32.23-1.1.31-2.14.08-1.04.09-1.87.4-2.77-1.64,1.67-1.29,3.93-1.99,4.43-.7.5-2.06-.29-2.67-1.1-.68-.92-.58-1.7-1.03-2.39-.45-.7-1.82-1.4-1.68-2.8.14-1.4,1.41-2.2,1.94-3.67.49-1.36.68-2.16,1.65-5.03.88-2.61,2.27-5.69,3.58-8.03-.53-2.27,1.05-3.51,1.58-3.75,1.16-1.83,1.22-3.04,2.19-4.07Z"/>
        <path class="cls-5" d="M646.84,82.03s2.03-6.05,1.36-6.15c-.68-.1-1.52,1.29-1.52,1.29,0,0-.09,2.18-.33,2.86-.23.68-1.42,2.13-1.42,2.13l1.91-.12Z"/>
        <path class="cls-5" d="M629.9,107.99c.6.63.7,1.44.92,1.53.23.09,1.2-.96,1.58-1.28-.82,1.51-2.15,3.24-2.38,3.09-.2-.14,1.02-4.38-2.35-3.15.68-.63,1.63-.82,2.24-.19Z"/>
        <path class="cls-5" d="M695.19,69.07c-5.21,7.67-38.43-17-46.24,8.62,17.23-12.33,46.88,4.53,46.24-8.62Z"/>
        <path class="cls-5" d="M697.79,85.58c.89-8.05-10.37-16.2-23.32-11.03,11,.79,19.34,5.94,23.32,11.03Z"/>
        <path class="cls-5" d="M647.09,79.97c-.98.66-2.79,2.77-3.22,3.65,22.43-11.6,37.72-4.56,51.41,1.9-9.1-7.53-31.51-16.85-48.2-5.55Z"/>
        <path class="cls-5" d="M639.51,82.45c1.69-6.31,10.11-10.95,17.38-12.72-10.61-3.31-27.63,7.21-17.38,12.72Z"/>
        <path class="cls-5" d="M638.47,83.15c-6.76-.65-2.84-8.01,4.43-9.78-14.12,1.45-18.8,16.71-4.43,9.78Z"/>
        <path class="cls-5" d="M642.48,100.59c.6-1.33.84-2.7.85-4.04.5.84.6,2.57-.85,4.04Z"/>
        <path class="cls-5" d="M644.49,96.82c.86,0,1.72.18,2.51-.3,1.09-.66,2.03-1.63,2.95-2.5-1.46,1.88-2.69,3.94-5.32,3.61-.41-.05-.7-.81-.14-.81Z"/>
        <path class="cls-5" d="M635.91,93.33c1.35,1.28,3.87-1.23,2.77-3.47-.23.44-1.49.56-2.28,1.15-.78.59-1.37,1.48-.49,2.32ZM638.41,92c.06-.49-.07-1.02-.06-1.12.01-.11.25-.31.33-.27.08.04-.05.95-.27,1.39ZM637.68,91.71c.16-.03.35-.12.56-.38-.06.67-.35,1.15-.77,1.66.13-.44.2-.89.2-1.27ZM637.64,90.7c-.67.31-1.46,1.13-1.87,2.11,0-.7.37-1.77,1.87-2.11Z"/>
      </g>
    </g>
    <g>
      <path class="cls-21" d="M686.9,112.02h13.42v2.34h-15.97v-25.07h15.54v2.34h-12.99v8.53h12.14v2.34h-12.14v9.52Z"/>
      <path class="cls-21" d="M730.02,114.35h-14.34c-1.82,0-3.5-.32-5.05-.96-1.55-.64-2.89-1.53-4.02-2.67-1.13-1.14-2.02-2.5-2.66-4.07-.64-1.57-.96-3.29-.96-5.15s.32-3.58.96-5.15c.64-1.57,1.52-2.93,2.66-4.07,1.13-1.14,2.47-2.04,4.02-2.67,1.55-.64,3.23-.96,5.05-.96s3.46.32,5.01.96c1.55.64,2.89,1.53,4.02,2.67,1.13,1.15,2.02,2.5,2.66,4.07.64,1.57.96,3.29.96,5.15,0,2.27-.47,4.3-1.4,6.11-.93,1.81-2.43,3.25-4.48,4.34v.07h7.58v2.34ZM705.77,101.5c0,1.39.22,2.72.67,3.98.45,1.26,1.1,2.38,1.95,3.35.85.97,1.89,1.74,3.12,2.32,1.23.58,2.62.87,4.18.87s2.91-.29,4.14-.87c1.23-.58,2.27-1.35,3.12-2.32.85-.97,1.5-2.08,1.95-3.35.45-1.26.67-2.59.67-3.98s-.22-2.72-.67-3.98c-.45-1.26-1.1-2.38-1.95-3.35-.85-.97-1.89-1.74-3.12-2.32-1.23-.58-2.61-.87-4.14-.87s-2.95.29-4.18.87c-1.23.58-2.27,1.35-3.12,2.32-.85.97-1.5,2.08-1.95,3.35-.45,1.26-.67,2.59-.67,3.98Z"/>
      <path class="cls-21" d="M751.51,105.01c0,1.04-.12,2.14-.37,3.31-.25,1.17-.71,2.25-1.4,3.24-.68.99-1.62,1.81-2.81,2.46-1.19.65-2.72.97-4.59.97s-3.42-.32-4.6-.97c-1.18-.65-2.11-1.47-2.8-2.46-.68-.99-1.15-2.07-1.4-3.24-.25-1.17-.37-2.27-.37-3.31v-15.72h2.55v15.44c0,1.2.12,2.24.35,3.1.24.86.55,1.59.94,2.18.39.59.83,1.06,1.31,1.4.48.34.97.61,1.45.8.48.19.95.31,1.4.37.45.06.84.09,1.17.09.31,0,.69-.03,1.15-.09.46-.06.93-.18,1.42-.37.48-.19.97-.45,1.45-.8.48-.34.92-.81,1.31-1.4.39-.59.7-1.32.94-2.18.24-.86.35-1.89.35-3.1v-15.44h2.55v15.72Z"/>
      <path class="cls-21" d="M775.16,105.01c0,1.04-.12,2.14-.37,3.31-.25,1.17-.71,2.25-1.4,3.24-.68.99-1.62,1.81-2.81,2.46-1.19.65-2.72.97-4.59.97s-3.42-.32-4.6-.97c-1.18-.65-2.11-1.47-2.8-2.46-.68-.99-1.15-2.07-1.4-3.24-.25-1.17-.37-2.27-.37-3.31v-15.72h2.55v15.44c0,1.2.12,2.24.35,3.1.24.86.55,1.59.94,2.18.39.59.83,1.06,1.31,1.4.48.34.97.61,1.45.8.48.19.95.31,1.4.37.45.06.84.09,1.17.09.31,0,.69-.03,1.15-.09.46-.06.93-.18,1.42-.37.48-.19.97-.45,1.45-.8.48-.34.92-.81,1.31-1.4.39-.59.7-1.32.94-2.18.24-.86.35-1.89.35-3.1v-15.44h2.55v15.72Z"/>
      <path class="cls-21" d="M792.76,93.43c-1.11-1.63-2.73-2.44-4.85-2.44-.66,0-1.31.09-1.95.27-.64.18-1.21.45-1.72.81-.51.37-.91.84-1.22,1.42-.31.58-.46,1.26-.46,2.04,0,1.13.32,2.01.96,2.64.64.63,1.43,1.14,2.37,1.54.94.4,1.98.76,3.1,1.08,1.12.32,2.15.74,3.1,1.27.94.53,1.74,1.23,2.37,2.11.64.87.96,2.07.96,3.58,0,1.13-.24,2.15-.73,3.06-.48.91-1.12,1.67-1.91,2.28-.79.61-1.68,1.09-2.66,1.42-.98.33-1.96.5-2.96.5-1.53,0-2.99-.29-4.37-.87-1.38-.58-2.56-1.53-3.52-2.85l2.34-1.66c.54.92,1.29,1.66,2.26,2.21.96.55,2.11.83,3.42.83.64,0,1.27-.1,1.91-.3.64-.2,1.21-.5,1.71-.89.51-.39.92-.87,1.25-1.43.33-.57.49-1.22.49-1.95,0-.87-.18-1.6-.55-2.18-.37-.58-.85-1.06-1.45-1.45-.6-.39-1.29-.71-2.05-.97-.77-.26-1.56-.52-2.37-.78-.81-.26-1.61-.55-2.37-.89-.77-.33-1.45-.75-2.05-1.26-.6-.51-1.09-1.14-1.45-1.91-.37-.77-.55-1.73-.55-2.89s.23-2.25.69-3.15c.46-.9,1.07-1.64,1.84-2.23.77-.59,1.63-1.03,2.6-1.31.97-.28,1.96-.42,2.97-.42,1.42,0,2.7.22,3.86.67,1.16.45,2.23,1.24,3.22,2.37l-2.23,1.73Z"/>
    </g>
  </g>
  <g>
    <g>
      <g>
        <polygon class="cls-17" points="34.18 87.75 34.18 117.35 26.7 117.35 26.7 104.19 11.5 117.35 0 117.35 34.18 87.75"/>
        <g class="cls-22">
          <rect class="cls-21" y="87.75" width="34.18" height="29.6"/>
        </g>
      </g>
      <g>
        <rect class="cls-21" x="62.43" y="87.73" width="7.48" height="29.62"/>
        <g class="cls-10">
          <rect class="cls-21" x="62.43" y="87.73" width="7.48" height="29.62"/>
        </g>
      </g>
      <g>
        <rect class="cls-21" x="38.65" y="87.73" width="7.48" height="29.62"/>
        <g class="cls-13">
          <rect class="cls-21" x="38.65" y="87.73" width="7.48" height="29.62"/>
        </g>
      </g>
      <g>
        <rect class="cls-21" x="36.84" y="87.73" width="22.69" height="7.48"/>
        <g class="cls-11">
          <rect class="cls-21" x="36.84" y="87.73" width="22.69" height="7.48"/>
        </g>
      </g>
      <g>
        <rect class="cls-21" x="36.84" y="98.9" width="22.69" height="7.48"/>
        <g class="cls-12">
          <rect class="cls-21" x="36.84" y="98.9" width="22.69" height="7.48"/>
        </g>
      </g>
      <g>
        <rect class="cls-21" x="36.84" y="109.95" width="22.69" height="7.48"/>
        <g class="cls-16">
          <rect class="cls-21" x="36.84" y="109.95" width="22.69" height="7.48"/>
        </g>
      </g>
      <g>
        <polyline class="cls-17" points="29.16 105.4 29.16 113.24 19.92 113.24"/>
        <g class="cls-15">
          <rect class="cls-21" x="22.33" y="109.82" width="9.24" height="4.82"/>
        </g>
      </g>
    </g>
    <polygon class="cls-3" points="12.12 120.71 15.36 135.43 27.2 120.61 12.12 120.71"/>
    <g>
      <path class="cls-7" d="M49.79,144.54c22.69-1.54,39.83-21.18,38.29-43.86-1.54-22.69-21.18-39.83-43.86-38.29-22.69,1.54-39.83,21.18-38.29,43.86,0,.06.01.12.01.18l11.96-10.3c3.64-11.54,14.24-22.02,27.04-22.89,16.69-1.13,31.14,11.48,32.27,28.17,1.13,16.69-11.48,31.14-28.17,32.27-10.21.69-19.58-3.76-25.58-11.14-1.28-1.58-3.21.53-4.16-1.29l-3.53.49-1.61,1.6.93,2.94c1.24,1.97-.33,2.9,1.21,4.62,8.17,9.13,20.31,14.54,33.49,13.64"/>
      <g class="cls-14">
        <rect class="cls-5" x="5.83" y="62.29" width="82.34" height="82.34" transform="translate(-6.9 3.42) rotate(-3.88)"/>
      </g>
    </g>
  </g>
  <g>
    <polygon class="cls-7" points="1022.93 113.82 1014.42 109.46 1014.42 118.19 1022.93 113.82"/>
    <path class="cls-2" d="M970.42,97.37l3.49-5.21-21.79.03-10.01,14.86,1.01,2.93,19.57.06c1.38-2.05,2.77-4.09,4.14-6.15l-8.06-.03-1.13,1.68-1.38.83-5.61-.02,2.74-4.05c2,0,3.88.01,5.96.02l2.46-3.66-5.96-.02,1.72-2.74c1.68-.04,3.22-.01,4.93,0l.28.83-.41.62,8.03.03h0Z"/>
    <path class="cls-7" d="M970.25,97.21l3.12-4.76-20.93.04-2.03,3-7.7,11.62.88,2.4,18.73.14c1.19-1.77,2.77-3.97,3.55-5.4h-6.78l-.88,1.52-1.66.92-6.64-.09,3.22-4.62,1.91.03c1.97,0,2.36.02,4.33.03l2.04-3.18-6.13.05,1.89-3.23s1.19-.01,2.9,0l1.8.02.8.02.36,1.09-.3.41h7.55Z"/>
    <path class="cls-2" d="M935.62,111.11l13.5-20.05s5.47.06,9.82.07l3.62-5.65-31.95.14-3.62,5.37,11.32-.07-13.12,20.26,6.81.04,3.63-.1Z"/>
    <polygon class="cls-3" points="936.54 109.09 943.05 99.46 933.7 99.43 927.21 109.06 936.54 109.09 936.54 109.09"/>
    <polygon class="cls-2" points="981.69 95.96 986.51 95.96 986.76 96.79 986.36 97.42 994.41 97.44 995.85 95.32 994.72 92.18 976.16 92.13 966.06 107.12 967.04 110.1 983.68 110.16 988.66 107.19 990.81 104 982.76 103.98 981.63 105.64 980.22 106.49 974.6 106.47 981.69 95.96 981.69 95.96"/>
    <polygon class="cls-2" points="988.72 110.09 996.82 110.11 1001.58 103.05 1008.92 103.05 1004.15 110.14 1012.25 110.16 1024.42 92.15 1016.24 92.15 1011.44 99.34 1004.11 99.32 1009 92.15 1000.85 92.15 988.72 110.09"/>
    <path class="cls-7" d="M936.49,108.68l12.48-18.19s4.57.2,9.6.21l2.99-4.8-30.5.2-3.37,4.52,11.32-.14-11.85,18.16,9.33.03h0Z"/>
    <polygon class="cls-7" points="988.67 97.19 994.2 97.19 995.52 95.32 994.67 92.51 976.22 92.45 966.28 107.09 967.27 109.88 983.74 109.88 988.42 107.05 990.32 104.18 982.91 104.18 981.92 105.86 980.35 106.83 973.91 106.72 981.48 95.7 986.66 95.65 987.07 96.75 986.71 97.24 988.67 97.19"/>
    <polygon class="cls-7" points="988.93 109.95 996.75 109.95 1001.41 102.89 1009.19 102.89 1004.53 109.95 1012.15 109.92 1023.98 92.41 1016.34 92.41 1011.6 99.53 1003.72 99.53 1008.53 92.33 1000.86 92.36 988.93 109.95"/>
    <path class="cls-21" d="M867.42,110c.8-1.18,8.81-13.09,9.62-14.24.42,0,4.57.01,5,.02l2.52-3.6-18.17-.04-2.78,3.52,5.25.07-9.6,14.24,8.15.03h0ZM843.54,97.62l2.42,1.36,2.42,1.36,2.42,1.36-.44.67-.44.67-.44.67-.44.67,1.24.25,1.24.25,1.24.25,1.24.25c-1.1-.01-2.23-.02-3.38-.03s-2.32,0-3.51,0-2.38,0-3.58,0c-1.2,0-2.4,0-3.59,0l.63-.87.63-.87.63-.87.63-.87h-2.19s-2.19-.01-2.19-.01h-2.19s-2.19-.01-2.19-.01l-1.55,2-1.55,2-1.55,2-1.55,2,6.92.02,6.92.02,6.92.02,6.92.02,1.93-2.91,1.93-2.91,1.93-2.91,1.93-2.91c-1.57-.71-7.62-3.38-9.09-4.07-1.68-.79-6.99-3.38-8.55-3.45.96.04,11.08-.09,12.11,0l-.53.95,8.87.03,4.56-5.9-18.75.08-7.01-.04-6.04,4.22,2.55.36-2.74,4.12,5.23,3.01ZM881.64,106.12h2.18s2.18.01,2.18.01h2.18s2.18.01,2.18.01l-.23.98-.23.98-.23.98-.23.98h2.04s2.04.01,2.04.01h2.04s2.04.01,2.04.01l1.07-4.51,1.07-4.51,1.07-4.51.95-4.39-11.14-.05-1.13.83-1.11.94-1.11.94-1.11.94-3.95,3.56-3.95,3.56-3.95,3.56-3.95,3.56h2.04s2.04.01,2.04.01h2.04s2.04.01,2.04.01l1.09-.98,1.09-.98,1.09-.98,1.09-.98h-.3s-.3,0-.3,0h-.3s-.3,0-.3,0h0ZM886.99,102.37l1.36-1.22,1.36-1.22,1.36-1.22,1.36-1.22-.24,1.01-.24,1.01-.24,1.01-.24,1.01-.05.22-.05.22-.05.22-.05.22h-1.17s-1.17,0-1.17,0h-1.17s-1.17,0-1.17,0l1.47-1.22,1.47-1.22,1.47-1.22,1.47-1.22-1.36,1.22-1.36,1.22-1.36,1.22-1.36,1.22h0ZM912.35,110.14h2.58s2.58.02,2.58.02h2.58s2.58.02,2.58.02l2.96-4.5,2.96-4.5,2.96-4.5,2.96-4.5h-1.97s-1.97-.01-1.97-.01h-1.97s-1.97-.01-1.97-.01l-1.83,2.74-1.83,2.74-1.83,2.74-1.83,2.74.27-2.74.27-2.74.27-2.74.27-2.74h-2.65s-2.65-.02-2.65-.02h-2.65s-2.65-.02-2.65-.02l-3.04,4.5-3.04,4.5-3.04,4.5-3.04,4.5h2.04s2.04.01,2.04.01h2.04s2.04.01,2.04.01l1.91-2.89,1.91-2.89,1.91-2.89,1.91-2.89-.28,2.9-.28,2.9-.28,2.9-.28,2.9h0Z"/>
    <path class="cls-7" d="M1015.51,116.39l-89.4.1c-1.98-.01-2.98-2.41-1.98-4.26l2-1.27,88.9.11.48,5.32Z"/>
    <polyline class="cls-3" points="928.6 105.85 923.11 113.28 924.56 116.49 936.64 116.46"/>
  </g>
  <g>
    <ellipse class="cls-19" cx="263.9" cy="104" rx="110.81" ry="23.95"/>
    <path class="cls-21" d="M188.97,116.88l4.52-25.42h20.31l-.81,4.52h-14.74l-1,5.67h13.08l-.78,4.48h-13.12l-1.07,6.19h15l-.81,4.55h-20.57Z"/>
    <path class="cls-21" d="M225.1,117.32c-3.53,0-6.24-.79-8.11-2.39-1.88-1.59-2.82-4.09-2.82-7.5,0-.67.03-1.32.09-1.97.06-.64.14-1.28.24-1.93.47-2.61,1.33-4.87,2.58-6.74s2.85-3.31,4.83-4.3c1.98-.99,4.27-1.48,6.89-1.48,2.05,0,3.86.29,5.42.87,1.57.58,2.8,1.46,3.69,2.63.89,1.17,1.33,2.65,1.33,4.43,0,.34-.02.69-.06,1.03s-.08.7-.13,1.07h-5.6c.05-.22.08-.43.09-.65s.02-.4.02-.57c0-.96-.2-1.76-.61-2.39-.41-.63-.97-1.11-1.68-1.42-.72-.32-1.58-.48-2.6-.48-1.18,0-2.24.18-3.17.55s-1.74.89-2.43,1.55-1.27,1.48-1.72,2.43c-.46.95-.79,2.02-1.02,3.21-.1.52-.18.98-.26,1.37-.07.4-.13.75-.17,1.05-.04.3-.06.58-.07.81s-.02.48-.02.72c0,1.24.19,2.26.59,3.08.4.81,1,1.42,1.81,1.84.81.41,1.83.61,3.04.61,1.28,0,2.43-.21,3.45-.63,1.02-.42,1.86-1.03,2.52-1.84.67-.8,1.1-1.79,1.29-2.98h5.4c-.37,2.24-1.15,4.11-2.36,5.6-1.2,1.48-2.7,2.59-4.5,3.32-1.8.73-3.81,1.09-6.01,1.09l.02.02Z"/>
    <path class="cls-21" d="M251.95,117.32c-2.45,0-4.54-.37-6.26-1.11s-3.05-1.86-3.94-3.34c-.91-1.48-1.35-3.34-1.35-5.56,0-.56.02-1.14.06-1.7s.1-1.13.2-1.66c.47-2.72,1.33-5.04,2.6-6.98,1.26-1.94,2.91-3.42,4.96-4.43,2.05-1.02,4.48-1.52,7.3-1.52,2.42,0,4.5.37,6.23,1.11,1.73.74,3.06,1.86,3.98,3.34.92,1.48,1.39,3.34,1.39,5.56,0,.55-.03,1.09-.07,1.63-.05.55-.12,1.09-.22,1.63-.42,2.74-1.27,5.09-2.56,7.04s-2.96,3.44-5.02,4.46-4.49,1.53-7.28,1.53ZM252.03,112.77c1.26,0,2.39-.18,3.39-.54,1-.36,1.88-.89,2.63-1.57.76-.69,1.37-1.54,1.86-2.56.48-1.02.83-2.16,1.05-3.45.07-.47.14-.88.2-1.22s.1-.65.13-.91.05-.49.06-.68c0-.19.02-.4.02-.59,0-1.18-.22-2.21-.67-3.08s-1.12-1.52-2.02-1.97c-.91-.44-2.02-.67-3.35-.67-1.24,0-2.36.18-3.35.54-1,.36-1.88.89-2.61,1.57-.74.69-1.35,1.54-1.84,2.56-.48,1.02-.83,2.16-1.05,3.45-.1.47-.17.88-.2,1.22s-.06.65-.09.91-.05.49-.06.68c0,.19-.02.4-.02.59,0,1.18.22,2.21.67,3.06.44.85,1.11,1.51,2,1.97.89.46,1.98.68,3.26.68Z"/>
    <path class="cls-5" d="M286.02,89.32s.02-.04.03-.06l8.95-19.28,7.93-.42-20.57,47.33-8.9.04-8.61-31.9,10.1-.09.23,1.76c.06.4.63,3.77.77,4.54.15.78.32,1.76.52,2.61.18.82,1.31,7.06,1.55,8l.85,4.27"/>
    <path class="cls-5" d="M285.68,116.88l14.19-25.42h6.82l5.29,25.42h-5.67l-.96-5h-11.15l-2.71,5h-5.82,0ZM296.57,107.43h7.93l-1.15-6.15-.22-1.33c-.07-.44-.16-.9-.24-1.35-.08-.45-.16-.88-.2-1.26s-.1-.74-.15-1.05h-.18c-.25.5-.53,1.05-.83,1.68-.3.63-.61,1.25-.91,1.86-.3.61-.55,1.12-.78,1.53l-3.26,6.08h0Z"/>
    <path class="cls-5" d="M324.13,117.32c-3.53,0-6.24-.79-8.11-2.39-1.88-1.59-2.82-4.09-2.82-7.5,0-.67.03-1.32.09-1.97.06-.64.14-1.28.24-1.93.47-2.61,1.33-4.87,2.58-6.74,1.25-1.88,2.85-3.31,4.83-4.3,1.98-.99,4.27-1.48,6.89-1.48,2.05,0,3.86.29,5.42.87,1.57.58,2.8,1.46,3.69,2.63.89,1.17,1.33,2.65,1.33,4.43,0,.34-.02.69-.06,1.03s-.08.7-.13,1.07h-5.6c.05-.22.08-.43.09-.65,0-.21.02-.4.02-.57,0-.96-.2-1.76-.61-2.39s-.97-1.11-1.68-1.42c-.72-.32-1.58-.48-2.6-.48-1.18,0-2.24.18-3.17.55s-1.74.89-2.43,1.55-1.27,1.48-1.72,2.43c-.46.95-.79,2.02-1.02,3.21-.1.52-.18.98-.26,1.37-.07.4-.13.75-.17,1.05-.04.3-.06.58-.07.81s-.02.48-.02.72c0,1.24.19,2.26.59,3.08.4.81,1,1.42,1.81,1.84.81.41,1.83.61,3.04.61,1.28,0,2.43-.21,3.45-.63,1.02-.42,1.86-1.03,2.52-1.84.67-.8,1.1-1.79,1.29-2.98h5.4c-.37,2.24-1.15,4.11-2.36,5.6-1.2,1.48-2.7,2.59-4.5,3.32-1.8.73-3.81,1.09-6.01,1.09l.02.02Z"/>
    <polygon class="cls-5" points="297.8 72.78 290.9 70.26 296.36 65.86 302.01 61 303.11 68.05 304.48 75.25 297.8 72.78"/>
  </g>
  <path class="cls-5" d="M436.65,215.89l-1.06,1.83h-3.83l7.42-12.4h3.75l7.42,12.4h-3.92l-1.07-1.83h-8.71ZM444.01,213.6l-3-5.06-2.99,5.06h5.99Z"/>
  <path class="cls-5" d="M454.94,212.87c-1.19,0-2.16-.38-2.91-1.13s-1.12-1.66-1.12-2.7.37-1.91,1.12-2.64c.72-.72,1.68-1.07,2.91-1.07h10.51l-.93,2.67h-9.21c-.27,0-.49.1-.68.29-.18.17-.28.4-.28.69,0,.24.11.45.28.65.21.19.45.28.73.28h6.82c1.25,0,2.24.38,2.99,1.13.77.78,1.15,1.68,1.15,2.72s-.38,2.02-1.15,2.79c-.78.79-1.77,1.18-2.99,1.18h-11.11l.93-2.68h10.04c.32,0,.58-.11.8-.32.21-.22.32-.47.32-.77s-.11-.55-.32-.76c-.21-.22-.45-.32-.76-.32h-7.16Z"/>
  <path class="cls-5" d="M472.03,212.87c-1.19,0-2.16-.38-2.91-1.13s-1.12-1.66-1.12-2.7.37-1.91,1.12-2.64c.72-.72,1.68-1.07,2.91-1.07h10.51l-.93,2.67h-9.21c-.27,0-.49.1-.68.29-.18.17-.28.4-.28.69,0,.24.11.45.28.65.21.19.45.28.73.28h6.82c1.25,0,2.24.38,2.99,1.13.77.78,1.15,1.68,1.15,2.72s-.38,2.02-1.15,2.79c-.78.79-1.77,1.18-2.99,1.18h-11.11l.93-2.68h10.04c.32,0,.58-.11.8-.32.21-.22.32-.47.32-.77s-.11-.55-.32-.76c-.21-.22-.45-.32-.76-.32h-7.16Z"/>
  <path class="cls-5" d="M485.28,209.45c0-1.12.41-2.08,1.24-2.9.83-.82,1.96-1.23,3.36-1.23h7.56c1.43,0,2.55.41,3.36,1.23.83.81,1.24,1.76,1.24,2.87v4.21c0,1.07-.41,2.03-1.25,2.85-.84.84-1.95,1.25-3.35,1.25h-7.56c-1.38,0-2.5-.41-3.35-1.25-.83-.83-1.25-1.79-1.25-2.88v-4.15ZM496.57,214.92c.63-.01,1.13-.19,1.49-.51.38-.32.58-.78.58-1.35v-3.16c0-.58-.21-1.03-.58-1.35-.38-.34-.87-.51-1.49-.51h-5.82c-.61,0-1.1.17-1.48.51-.36.33-.56.78-.58,1.35v3.2c0,.55.2.99.58,1.32.4.34.89.51,1.48.51h5.82Z"/>
  <path class="cls-5" d="M518.14,217.72h-9.33c-1.38,0-2.5-.41-3.35-1.25-.83-.83-1.25-1.79-1.25-2.88v-4.15c0-1.12.41-2.08,1.24-2.9.83-.82,1.96-1.23,3.36-1.23h10.24l-.91,2.72h-8.46c-.59,0-1.09.18-1.49.52-.38.34-.57.8-.57,1.35v3.14c0,.56.2,1.01.58,1.35.39.33.89.5,1.49.51h9.38l-.91,2.8Z"/>
  <path class="cls-5" d="M524.7,205.32v12.4h-3.38v-12.4h3.38Z"/>
  <path class="cls-5" d="M531.08,215.89l-1.06,1.83h-3.83l7.42-12.4h3.75l7.42,12.4h-3.92l-1.07-1.83h-8.71ZM538.43,213.6l-3-5.06-2.99,5.06h5.99Z"/>
  <path class="cls-5" d="M550.79,217.72v-9.71h-6.07l.91-2.69h14.92l-.91,2.69h-5.45v9.71h-3.39Z"/>
  <path class="cls-5" d="M576.16,210.21l-.84,2.52h-9.12v2.22h10.75l-.92,2.76h-13.21v-12.4h14.13l-.92,2.76h-9.83v2.13h9.96Z"/>
  <path class="cls-5" d="M579.22,205.32h11.9c1.42,0,2.55.41,3.36,1.23.83.81,1.24,1.76,1.24,2.87v4.21c0,1.07-.41,2.03-1.24,2.85-.83.84-1.95,1.25-3.36,1.25h-11.9v-12.4ZM582.61,214.92h7.65c.62-.01,1.11-.18,1.48-.51.39-.34.59-.79.59-1.35v-3.14c0-.58-.2-1.03-.58-1.35-.38-.34-.88-.52-1.49-.52h-7.65v6.88Z"/>
  <path class="cls-5" d="M442.05,223.83v12.4h-3.38v-12.4h3.38Z"/>
  <path class="cls-5" d="M460.68,236.23h-3.42l-8.85-8.09v8.09h-3.41v-12.4h3.41l8.85,8.12v-8.12h3.42v12.4Z"/>
  <path class="cls-5" d="M463.64,223.83h11.9c1.42,0,2.55.41,3.36,1.23.83.81,1.24,1.76,1.24,2.87v4.21c0,1.07-.41,2.03-1.24,2.85-.83.84-1.96,1.25-3.36,1.25h-11.9v-12.4ZM467.03,233.43h7.65c.62-.01,1.11-.18,1.48-.51.39-.34.59-.79.59-1.35v-3.14c0-.58-.2-1.03-.58-1.35-.38-.34-.88-.52-1.49-.52h-7.65v6.88Z"/>
  <path class="cls-5" d="M497.43,223.83v8.28c0,1.09-.41,2.04-1.25,2.88s-1.95,1.25-3.35,1.25h-5.82c-1.39,0-2.5-.41-3.35-1.25-.83-.83-1.25-1.79-1.25-2.88v-8.28h3.41v7.77c0,.55.2.99.58,1.32.4.34.89.51,1.48.51h4.09c.61,0,1.1-.17,1.48-.51.38-.32.58-.77.58-1.32v-7.77h3.39Z"/>
  <path class="cls-5" d="M503.64,231.37c-1.19,0-2.16-.38-2.91-1.13s-1.12-1.66-1.12-2.7.37-1.91,1.12-2.64c.72-.72,1.68-1.07,2.91-1.07h10.51l-.93,2.67h-9.21c-.27,0-.49.1-.68.29-.18.17-.28.4-.28.69,0,.24.11.45.28.65.21.19.45.28.73.28h6.82c1.25,0,2.24.38,2.99,1.13.77.78,1.15,1.68,1.15,2.72s-.38,2.02-1.15,2.79c-.78.79-1.77,1.18-2.99,1.18h-11.11l.93-2.68h10.04c.32,0,.58-.11.8-.32.21-.22.32-.47.32-.77s-.11-.55-.32-.76c-.21-.22-.45-.32-.76-.32h-7.16Z"/>
  <path class="cls-5" d="M522.77,236.23v-9.71h-6.07l.91-2.69h14.92l-.91,2.69h-5.45v9.71h-3.39Z"/>
  <path class="cls-5" d="M546.25,223.83c1.24,0,2.24.38,3.01,1.15.78.78,1.16,1.69,1.16,2.74s-.38,1.98-1.16,2.78c-.77.78-1.76,1.17-2.98,1.17h-.82l5.01,4.56h-4.64l-7.12-7.04h6.97c.39,0,.72-.13.98-.39.25-.26.38-.56.38-.91s-.13-.67-.38-.91c-.25-.26-.56-.38-.96-.38h-7.51v9.64h-3.41v-12.4h11.45Z"/>
  <path class="cls-5" d="M556.32,223.83v12.4h-3.38v-12.4h3.38Z"/>
  <path class="cls-5" d="M572.62,228.72l-.84,2.52h-9.12v2.22h10.75l-.92,2.76h-13.21v-12.4h14.13l-.92,2.76h-9.83v2.13h9.96Z"/>
  <path class="cls-5" d="M579.12,231.37c-1.19,0-2.16-.38-2.91-1.13s-1.12-1.66-1.12-2.7.37-1.91,1.12-2.64c.72-.72,1.68-1.07,2.91-1.07h10.51l-.93,2.67h-9.21c-.27,0-.49.1-.68.29-.18.17-.28.4-.28.69,0,.24.11.45.28.65.21.19.45.28.73.28h6.82c1.25,0,2.24.38,2.99,1.13.77.78,1.15,1.68,1.15,2.72s-.38,2.02-1.15,2.79c-.78.79-1.77,1.18-2.99,1.18h-11.11l.93-2.68h10.04c.32,0,.58-.11.8-.32.21-.22.32-.47.32-.77s-.11-.55-.32-.76c-.21-.22-.45-.32-.76-.32h-7.16Z"/>
  <g>
    <path class="cls-8" d="M607.44,27.3c1.98,67.08-38.98,131.15-95.19,165.54-58.3-32.47-96.42-98.28-95.59-165.77,57.38-33.82,134.72-34.6,190.78.23Z"/>
    <path class="cls-18" d="M607.7,27.35c1.98,67.05-38.97,131.09-95.14,165.46-58.28-32.45-96.38-98.24-95.54-165.69,57.36-33.8,134.66-34.59,190.69.23Z"/>
    <g>
      <path class="cls-4" d="M558.64,111.37c0,25.22-20.45,45.67-45.67,45.67s-45.67-20.45-45.67-45.67,45.67-85.63,45.67-85.63c0,0,45.67,60.41,45.67,85.63Z"/>
      <path class="cls-1" d="M554.32,103.27c0,22.84-18.51,41.35-41.35,41.35s-41.35-18.51-41.35-41.35,41.35-77.53,41.35-77.53c0,0,41.35,54.69,41.35,77.53Z"/>
      <g>
        <path class="cls-20" d="M496.95,88.02c-3.29,0-6.21,1.75-7.8,4.57l-15.09,31.66h10.04c4.08,0,7.79-2.34,9.55-6.03l11.69-24.52-.27-.56c-1.51-3.16-4.62-5.12-8.11-5.12Z"/>
        <path class="cls-20" d="M505.86,92.76l5.96,12.51,8.25-17.3-3.01-6.32c-4.55-9.55-18.15-9.55-22.7,0l-3.68,7.72c1.73-1.42,3.92-2.23,6.27-2.23,3.84,0,7.26,2.15,8.91,5.62Z"/>
        <polygon class="cls-20" points="528.92 75.55 523.4 87.14 539.85 87.14 545.27 75.55 528.92 75.55"/>
        <path class="cls-20" d="M505.71,124.26h10.04c4.08,0,7.79-2.34,9.55-6.03l13.16-28.11h-16.48l-16.27,34.14Z"/>
        <path class="cls-20" d="M527.69,119.37c-.94,1.96-2.33,3.63-4.02,4.89h13.7l-6.04-12.66-3.64,7.78Z"/>
      </g>
    </g>
  </g>
</svg>