<?xml version="1.0" encoding="UTF-8"?>
<svg id="Layer_1" xmlns="http://www.w3.org/2000/svg" xmlns:xlink="http://www.w3.org/1999/xlink" version="1.1" viewBox="0 0 288 288">
  <!-- Generator: Adobe Illustrator 29.5.1, SVG Export Plug-In . SVG Version: 2.1.0 Build 141)  -->
  <defs>
    <style>
      .st0 {
        fill: url(#radial-gradient);
      }

      .st1 {
        fill: #0073e5;
      }

      .st2 {
        fill: #e0f0fc;
      }

      .st3 {
        fill: none;
        stroke: #15182f;
        stroke-miterlimit: 10;
        stroke-width: 3px;
      }

      .st4 {
        fill: #fff;
      }

      .st5 {
        fill: url(#radial-gradient1);
      }
    </style>
    <radialGradient id="radial-gradient" cx="142.5" cy="126.1" fx="142.5" fy="126.1" r="83.8" gradientUnits="userSpaceOnUse">
      <stop offset=".1" stop-color="#00adee"/>
      <stop offset=".1" stop-color="#00a8e8"/>
      <stop offset=".6" stop-color="#08609f"/>
      <stop offset=".7" stop-color="#0b4583"/>
      <stop offset=".9" stop-color="#0d0055"/>
      <stop offset="1" stop-color="#97ffff"/>
    </radialGradient>
    <radialGradient id="radial-gradient1" cx="142.7" cy="119" fx="142.7" fy="119" r="75.9" gradientUnits="userSpaceOnUse">
      <stop offset="0" stop-color="#fff"/>
      <stop offset=".4" stop-color="#00a5e4"/>
      <stop offset=".5" stop-color="#0080bd"/>
      <stop offset=".7" stop-color="#005a95"/>
      <stop offset=".8" stop-color="#074c89"/>
      <stop offset=".8" stop-color="#0b4583"/>
      <stop offset=".8" stop-color="#0d4684"/>
      <stop offset=".9" stop-color="#144c88"/>
      <stop offset=".9" stop-color="#22568e"/>
      <stop offset=".9" stop-color="#356598"/>
      <stop offset=".9" stop-color="#4d77a4"/>
      <stop offset=".9" stop-color="#6b8eb4"/>
      <stop offset=".9" stop-color="#8faac6"/>
      <stop offset=".9" stop-color="#b9c9db"/>
      <stop offset=".9" stop-color="#e7ecf2"/>
      <stop offset=".9" stop-color="#fff"/>
    </radialGradient>
  </defs>
  <path class="st1" d="M68.4,241.1l-1.1,1.8h-3.8l7.4-12.4h3.8l7.4,12.4h-3.9l-1.1-1.8h-8.7ZM75.8,238.8l-3-5.1-3,5.1h6Z"/>
  <path class="st1" d="M86.7,238c-1.2,0-2.2-.4-2.9-1.1s-1.1-1.7-1.1-2.7.4-1.9,1.1-2.6c.7-.7,1.7-1.1,2.9-1.1h10.5l-.9,2.7h-9.2c-.3,0-.5,0-.7.3-.2.2-.3.4-.3.7,0,.2.1.5.3.6.2.2.5.3.7.3h6.8c1.2,0,2.2.4,3,1.1.8.8,1.2,1.7,1.2,2.7s-.4,2-1.2,2.8c-.8.8-1.8,1.2-3,1.2h-11.1l.9-2.7h10c.3,0,.6-.1.8-.3.2-.2.3-.5.3-.8s-.1-.5-.3-.8c-.2-.2-.5-.3-.8-.3h-7.2Z"/>
  <path class="st1" d="M103.8,238c-1.2,0-2.2-.4-2.9-1.1s-1.1-1.7-1.1-2.7.4-1.9,1.1-2.6c.7-.7,1.7-1.1,2.9-1.1h10.5l-.9,2.7h-9.2c-.3,0-.5,0-.7.3-.2.2-.3.4-.3.7,0,.2.1.5.3.6.2.2.5.3.7.3h6.8c1.2,0,2.2.4,3,1.1.8.8,1.2,1.7,1.2,2.7s-.4,2-1.2,2.8c-.8.8-1.8,1.2-3,1.2h-11.1l.9-2.7h10c.3,0,.6-.1.8-.3.2-.2.3-.5.3-.8s-.1-.5-.3-.8c-.2-.2-.5-.3-.8-.3h-7.2Z"/>
  <path class="st1" d="M117.1,234.6c0-1.1.4-2.1,1.2-2.9.8-.8,2-1.2,3.4-1.2h7.6c1.4,0,2.5.4,3.4,1.2.8.8,1.2,1.8,1.2,2.9v4.2c0,1.1-.4,2-1.2,2.8-.8.8-1.9,1.2-3.4,1.2h-7.6c-1.4,0-2.5-.4-3.4-1.2-.8-.8-1.2-1.8-1.2-2.9v-4.1ZM128.4,240.1c.6,0,1.1-.2,1.5-.5.4-.3.6-.8.6-1.3v-3.2c0-.6-.2-1-.6-1.4-.4-.3-.9-.5-1.5-.5h-5.8c-.6,0-1.1.2-1.5.5-.4.3-.6.8-.6,1.4v3.2c0,.5.2,1,.6,1.3.4.3.9.5,1.5.5h5.8Z"/>
  <path class="st1" d="M149.9,242.9h-9.3c-1.4,0-2.5-.4-3.4-1.2-.8-.8-1.2-1.8-1.2-2.9v-4.1c0-1.1.4-2.1,1.2-2.9.8-.8,2-1.2,3.4-1.2h10.2l-.9,2.7h-8.5c-.6,0-1.1.2-1.5.5-.4.3-.6.8-.6,1.4v3.1c0,.6.2,1,.6,1.3.4.3.9.5,1.5.5h9.4l-.9,2.8Z"/>
  <path class="st1" d="M156.5,230.5v12.4h-3.4v-12.4h3.4Z"/>
  <path class="st1" d="M162.9,241.1l-1.1,1.8h-3.8l7.4-12.4h3.8l7.4,12.4h-3.9l-1.1-1.8h-8.7ZM170.2,238.8l-3-5.1-3,5.1h6Z"/>
  <path class="st1" d="M182.6,242.9v-9.7h-6.1l.9-2.7h14.9l-.9,2.7h-5.5v9.7h-3.4Z"/>
  <path class="st1" d="M208,235.4l-.8,2.5h-9.1v2.2h10.8l-.9,2.8h-13.2v-12.4h14.1l-.9,2.8h-9.8v2.1h10Z"/>
  <path class="st1" d="M211,230.5h11.9c1.4,0,2.5.4,3.4,1.2.8.8,1.2,1.8,1.2,2.9v4.2c0,1.1-.4,2-1.2,2.8-.8.8-2,1.2-3.4,1.2h-11.9v-12.4ZM214.4,240.1h7.6c.6,0,1.1-.2,1.5-.5.4-.3.6-.8.6-1.3v-3.1c0-.6-.2-1-.6-1.4-.4-.3-.9-.5-1.5-.5h-7.6v6.9Z"/>
  <path class="st1" d="M73.8,249v12.4h-3.4v-12.4h3.4Z"/>
  <path class="st1" d="M92.5,261.4h-3.4l-8.8-8.1v8.1h-3.4v-12.4h3.4l8.8,8.1v-8.1h3.4v12.4Z"/>
  <path class="st1" d="M95.4,249h11.9c1.4,0,2.5.4,3.4,1.2.8.8,1.2,1.8,1.2,2.9v4.2c0,1.1-.4,2-1.2,2.8-.8.8-2,1.2-3.4,1.2h-11.9v-12.4ZM98.8,258.6h7.6c.6,0,1.1-.2,1.5-.5.4-.3.6-.8.6-1.3v-3.1c0-.6-.2-1-.6-1.4-.4-.3-.9-.5-1.5-.5h-7.6v6.9Z"/>
  <path class="st1" d="M129.2,249v8.3c0,1.1-.4,2-1.2,2.9s-1.9,1.2-3.4,1.2h-5.8c-1.4,0-2.5-.4-3.4-1.2-.8-.8-1.2-1.8-1.2-2.9v-8.3h3.4v7.8c0,.5.2,1,.6,1.3.4.3.9.5,1.5.5h4.1c.6,0,1.1-.2,1.5-.5.4-.3.6-.8.6-1.3v-7.8h3.4Z"/>
  <path class="st1" d="M135.4,256.5c-1.2,0-2.2-.4-2.9-1.1s-1.1-1.7-1.1-2.7.4-1.9,1.1-2.6c.7-.7,1.7-1.1,2.9-1.1h10.5l-.9,2.7h-9.2c-.3,0-.5,0-.7.3-.2.2-.3.4-.3.7,0,.2.1.5.3.6.2.2.5.3.7.3h6.8c1.2,0,2.2.4,3,1.1.8.8,1.2,1.7,1.2,2.7s-.4,2-1.2,2.8c-.8.8-1.8,1.2-3,1.2h-11.1l.9-2.7h10c.3,0,.6-.1.8-.3.2-.2.3-.5.3-.8s-.1-.5-.3-.8c-.2-.2-.5-.3-.8-.3h-7.2Z"/>
  <path class="st1" d="M154.6,261.4v-9.7h-6.1l.9-2.7h14.9l-.9,2.7h-5.5v9.7h-3.4Z"/>
  <path class="st1" d="M178,249c1.2,0,2.2.4,3,1.1.8.8,1.2,1.7,1.2,2.7s-.4,2-1.2,2.8c-.8.8-1.8,1.2-3,1.2h-.8l5,4.6h-4.6l-7.1-7h7c.4,0,.7-.1,1-.4.3-.3.4-.6.4-.9s-.1-.7-.4-.9c-.2-.3-.6-.4-1-.4h-7.5v9.6h-3.4v-12.4h11.4Z"/>
  <path class="st1" d="M188.1,249v12.4h-3.4v-12.4h3.4Z"/>
  <path class="st1" d="M204.4,253.9l-.8,2.5h-9.1v2.2h10.8l-.9,2.8h-13.2v-12.4h14.1l-.9,2.8h-9.8v2.1h10Z"/>
  <path class="st1" d="M210.9,256.5c-1.2,0-2.2-.4-2.9-1.1s-1.1-1.7-1.1-2.7.4-1.9,1.1-2.6c.7-.7,1.7-1.1,2.9-1.1h10.5l-.9,2.7h-9.2c-.3,0-.5,0-.7.3-.2.2-.3.4-.3.7,0,.2.1.5.3.6.2.2.5.3.7.3h6.8c1.2,0,2.2.4,3,1.1.8.8,1.2,1.7,1.2,2.7s-.4,2-1.2,2.8c-.8.8-1.8,1.2-3,1.2h-11.1l.9-2.7h10c.3,0,.6-.1.8-.3.2-.2.3-.5.3-.8s-.1-.5-.3-.8c-.2-.2-.5-.3-.8-.3h-7.2Z"/>
  <g>
    <path class="st2" d="M239.2,52.5c2,67.1-39,131.2-95.2,165.5C85.7,185.5,47.6,119.7,48.5,52.2c57.4-33.8,134.7-34.6,190.8.2Z"/>
    <path class="st3" d="M239.5,52.5c2,67-39,131.1-95.1,165.5C86.1,185.5,48,119.7,48.8,52.3c57.4-33.8,134.7-34.6,190.7.2Z"/>
    <g>
      <path class="st0" d="M190.4,136.5c0,25.2-20.4,45.7-45.7,45.7s-45.7-20.4-45.7-45.7,45.7-85.6,45.7-85.6c0,0,45.7,60.4,45.7,85.6Z"/>
      <path class="st5" d="M186.1,128.4c0,22.8-18.5,41.3-41.3,41.3s-41.3-18.5-41.3-41.3,41.3-77.5,41.3-77.5c0,0,41.3,54.7,41.3,77.5Z"/>
      <g>
        <path class="st4" d="M128.7,113.2c-3.3,0-6.2,1.7-7.8,4.6l-15.1,31.7h10c4.1,0,7.8-2.3,9.5-6l11.7-24.5-.3-.6c-1.5-3.2-4.6-5.1-8.1-5.1Z"/>
        <path class="st4" d="M137.6,117.9l6,12.5,8.2-17.3-3-6.3c-4.6-9.6-18.1-9.6-22.7,0l-3.7,7.7c1.7-1.4,3.9-2.2,6.3-2.2,3.8,0,7.3,2.2,8.9,5.6Z"/>
        <polygon class="st4" points="160.7 100.7 155.2 112.3 171.6 112.3 177.1 100.7 160.7 100.7"/>
        <path class="st4" d="M137.5,149.4h10c4.1,0,7.8-2.3,9.5-6l13.2-28.1h-16.5l-16.3,34.1Z"/>
        <path class="st4" d="M159.5,144.5c-.9,2-2.3,3.6-4,4.9h13.7l-6-12.7-3.6,7.8Z"/>
      </g>
    </g>
  </g>
</svg>