<?xml version="1.0" encoding="UTF-8"?>
<svg id="Layer_1" data-name="Layer 1" xmlns="http://www.w3.org/2000/svg" xmlns:xlink="http://www.w3.org/1999/xlink" viewBox="0 0 335.42 88.4">
  <defs>
    <style>
      .cls-1, .cls-2, .cls-3, .cls-4 {
        fill: none;
      }

      .cls-5 {
        fill-rule: evenodd;
      }

      .cls-5, .cls-6 {
        fill: #fff;
      }

      .cls-7 {
        fill: url(#radial-gradient-2);
      }

      .cls-2 {
        stroke-width: 2.46px;
      }

      .cls-2, .cls-3 {
        stroke: #fff;
      }

      .cls-2, .cls-3, .cls-4 {
        stroke-miterlimit: 10;
      }

      .cls-8 {
        fill: url(#radial-gradient);
      }

      .cls-9 {
        fill: #e0f0fc;
      }

      .cls-10 {
        clip-path: url(#clippath-1);
      }

      .cls-11 {
        clip-path: url(#clippath-3);
      }

      .cls-12 {
        clip-path: url(#clippath-4);
      }

      .cls-13 {
        clip-path: url(#clippath-2);
      }

      .cls-14 {
        clip-path: url(#clippath-7);
      }

      .cls-15 {
        clip-path: url(#clippath-6);
      }

      .cls-16 {
        clip-path: url(#clippath-5);
      }

      .cls-3, .cls-4 {
        stroke-width: .98px;
      }

      .cls-4 {
        stroke: #15182f;
      }

      .cls-17 {
        clip-path: url(#clippath);
      }
    </style>
    <radialGradient id="radial-gradient" cx="325.58" cy="516.59" fx="325.58" fy="516.59" r="25.22" gradientTransform="translate(-290 -480.4)" gradientUnits="userSpaceOnUse">
      <stop offset="0" stop-color="#00adee"/>
      <stop offset="0" stop-color="#00a8e8"/>
      <stop offset=".6" stop-color="#08609f"/>
      <stop offset=".7" stop-color="#0b4583"/>
      <stop offset=".9" stop-color="#0d0055"/>
      <stop offset="1" stop-color="#97ffff"/>
    </radialGradient>
    <radialGradient id="radial-gradient-2" cx="325.71" cy="514.4" fx="325.71" fy="514.4" r="22.89" gradientTransform="translate(-290 -480.4)" gradientUnits="userSpaceOnUse">
      <stop offset="0" stop-color="#fff"/>
      <stop offset=".4" stop-color="#00a5e4"/>
      <stop offset=".5" stop-color="#0080bd"/>
      <stop offset=".7" stop-color="#005a95"/>
      <stop offset=".8" stop-color="#074c89"/>
      <stop offset=".8" stop-color="#0b4583"/>
      <stop offset=".8" stop-color="#0d4684"/>
      <stop offset=".8" stop-color="#144c88"/>
      <stop offset=".9" stop-color="#22568e"/>
      <stop offset=".9" stop-color="#356598"/>
      <stop offset=".9" stop-color="#4d77a4"/>
      <stop offset=".9" stop-color="#6b8eb4"/>
      <stop offset=".9" stop-color="#8faac6"/>
      <stop offset=".9" stop-color="#b9c9db"/>
      <stop offset=".9" stop-color="#e7ecf2"/>
      <stop offset=".9" stop-color="#fff"/>
    </radialGradient>
    <clipPath id="clippath">
      <polygon class="cls-1" points="101.04 32.27 101.04 40.58 98.94 40.58 98.94 36.89 94.66 40.58 91.43 40.58 101.04 32.27"/>
    </clipPath>
    <clipPath id="clippath-1">
      <rect class="cls-1" x="108.99" y="32.26" width="2.1" height="8.33"/>
    </clipPath>
    <clipPath id="clippath-2">
      <rect class="cls-1" x="102.3" y="32.26" width="2.1" height="8.33"/>
    </clipPath>
    <clipPath id="clippath-3">
      <rect class="cls-1" x="101.79" y="32.26" width="6.38" height="2.1"/>
    </clipPath>
    <clipPath id="clippath-4">
      <rect class="cls-1" x="101.79" y="35.39" width="6.38" height="2.1"/>
    </clipPath>
    <clipPath id="clippath-5">
      <rect class="cls-1" x="101.79" y="38.51" width="6.38" height="2.1"/>
    </clipPath>
    <clipPath id="clippath-6">
      <polygon class="cls-1" points="99.63 37.23 99.63 39.43 97.02 39.43 99.63 37.23"/>
    </clipPath>
    <clipPath id="clippath-7">
      <path class="cls-1" d="M105.42,48.24c6.38-.44,11.2-5.96,10.77-12.33-.44-6.38-5.96-11.2-12.33-10.77-6.38.43-11.2,5.95-10.77,12.33v.05l3.36-2.9c1.02-3.25,4.01-6.19,7.61-6.44,4.7-.32,8.76,3.23,9.07,7.92.32,4.7-3.23,8.76-7.92,9.07-2.87.2-5.5-1.06-7.19-3.13-.36-.45-.9.15-1.17-.36l-.99.13-.45.45.27.82c.35.55-.09.81.34,1.3,2.3,2.57,5.71,4.09,9.41,3.84v.02h0Z"/>
    </clipPath>
  </defs>
  <path class="cls-9" d="M72.58,10.15c.82,25.35-14.66,49.61-36.04,62.63C14.47,60.58.08,35.64.5,10.15c21.65-12.74,50.98-13.02,72.08,0h0Z"/>
  <path class="cls-8" d="M50.1,39.21c0,7.54-6.17,13.84-13.84,13.84s-13.84-6.17-13.84-13.84,13.84-25.76,13.84-25.76c0,0,13.84,18.23,13.84,25.76Z"/>
  <path class="cls-7" d="M48.73,36.88c0,6.85-5.62,12.47-12.47,12.47s-12.47-5.62-12.47-12.47,12.47-23.3,12.47-23.3c0,0,12.47,16.44,12.47,23.3Z"/>
  <g>
    <path class="cls-6" d="M7.21,80.59l-.41.69h-1.51l2.88-4.66h1.37l2.88,4.66h-1.51l-.41-.69h-3.29,0ZM9.95,79.63l-1.23-1.92-1.1,1.92h2.33Z"/>
    <path class="cls-6" d="M14.2,79.5c-.41,0-.82-.14-1.1-.41s-.41-.69-.41-.96.14-.69.41-.96.69-.41,1.1-.41h3.97l-.41.96h-3.84c-.14,0,0,.14,0,.27v.27h2.88c.41,0,.82.14,1.23.41s.41.69.41.96-.14.82-.41,1.1-.69.41-1.23.41h-4.25l.41-.96h3.84s.27,0,.27-.14c0,0,.14-.14.14-.27v-.27s-.14-.14-.27-.14h-2.88v.14h.14Z"/>
    <path class="cls-6" d="M20.64,79.5c-.41,0-.82-.14-1.1-.41s-.41-.69-.41-.96.14-.69.41-.96.69-.41,1.1-.41h3.97l-.41.96h-3.84c-.14,0,0,.14,0,.27v.27h2.88c.41,0,.82.14,1.23.41s.41.69.41.96-.14.82-.41,1.1-.69.41-1.23.41h-4.25l.41-.96h3.84s.27,0,.27-.14c0,0,.14-.14.14-.27v-.27s-.14-.14-.27-.14h-2.88v.14h.14Z"/>
    <path class="cls-6" d="M25.71,78.12c0-.41.14-.82.41-1.1s.82-.41,1.23-.41h2.88c.55,0,.96.14,1.23.41.27.27.41.69.41,1.1v1.64c0,.41-.14.82-.41,1.1s-.82.41-1.23.41h-2.88c-.55,0-.96-.14-1.23-.41-.27-.27-.41-.69-.41-1.1v-1.51h0v-.14ZM29.96,80.18c.27,0,.41,0,.55-.14s.27-.27.27-.55v-1.23c0-.27,0-.41-.27-.55-.14-.14-.27-.14-.55-.14h-2.19c-.27,0-.41,0-.55.14s-.27.27-.27.55v1.23c0,.27,0,.41.27.41.14.14.27.14.55.14h2.19v.14Z"/>
    <path class="cls-6" d="M38.18,81.28h-3.56c-.55,0-.96-.14-1.23-.41-.27-.27-.41-.69-.41-1.1v-1.51c0-.41.14-.82.41-1.1s.82-.41,1.23-.41h3.97l-.27.96h-3.15c-.27,0-.41,0-.55.14s-.27.27-.27.55v1.23c0,.27,0,.41.27.55.14.14.27.14.55.14h3.56l-.27,1.1h-.14l-.14-.14Z"/>
    <path class="cls-6" d="M40.65,76.62v4.66h-1.23v-4.66h1.23Z"/>
    <path class="cls-6" d="M43.11,80.59l-.41.69h-1.51l2.88-4.66h1.37l2.88,4.66h-1.51l-.41-.69h-3.29ZM45.86,79.63l-1.23-1.92-1.23,1.92h2.47Z"/>
    <path class="cls-6" d="M50.65,81.28v-3.7h-2.33l.27-.96h5.62l-.27.96h-2.06v3.7s-1.37,0-1.23,0h0Z"/>
    <path class="cls-6" d="M60.24,78.4l-.27.96h-3.43v.82h4.11l-.27.96h-5.07v-4.66h5.34l-.27.96h-3.7v.82h3.7l-.14.14Z"/>
    <path class="cls-6" d="M61.48,76.62h4.52c.55,0,.96.14,1.23.41s.41.69.41,1.1v1.64c0,.41-.14.82-.41,1.1s-.69.41-1.23.41h-4.52v-4.66h0ZM62.71,80.18h2.88c.27,0,.41,0,.55-.14s.27-.27.27-.55v-1.23c0-.27,0-.41-.27-.55-.14-.14-.27-.14-.55-.14h-2.88v2.6h0Z"/>
    <path class="cls-6" d="M9.27,83.61v4.66h-1.23v-4.66h1.23Z"/>
    <path class="cls-6" d="M16.25,88.27h-1.37l-3.43-3.01v3.01h-1.37v-4.66h1.37l3.43,3.01v-3.01h1.37v4.66Z"/>
    <path class="cls-6" d="M17.49,83.61h4.52c.55,0,.96.14,1.23.41s.41.69.41,1.1v1.64c0,.41-.14.82-.41,1.1-.27.27-.82.41-1.23.41h-4.52v-4.66h0ZM18.72,87.31h2.88c.27,0,.41,0,.55-.14s.27-.27.27-.55v-1.23c0-.27,0-.41-.27-.55s-.27-.14-.55-.14h-2.88v2.6h0Z"/>
    <path class="cls-6" d="M30.23,83.61v3.15c0,.41-.14.82-.41,1.1-.27.27-.82.41-1.23.41h-2.19c-.55,0-.96-.14-1.23-.41s-.41-.69-.41-1.1v-3.15h1.37v3.01c0,.27,0,.41.27.41.14.14.27.14.55.14h1.51c.27,0,.41,0,.55-.14s.27-.27.27-.41v-3.01h1.37-.41Z"/>
    <path class="cls-6" d="M32.7,86.48c-.41,0-.82-.14-1.1-.41s-.41-.69-.41-.96.14-.69.41-.96.69-.41,1.1-.41h3.97l-.41.96h-3.84c-.14,0,0,.14,0,.27v.27h2.88c.41,0,.82.14,1.23.41s.41.69.41.96-.14.82-.41,1.1c-.27.27-.69.41-1.23.41h-4.25l.41-.96h3.84c.14,0,.27,0,.27-.14,0,0,.14-.14.14-.27s0-.27-.14-.27c0,0-.14-.14-.27-.14h-2.74v.14h.14Z"/>
    <path class="cls-6" d="M39.96,88.27v-3.7h-2.33l.27-.96h5.62l-.27.96h-2.06v3.7s-1.37,0-1.23,0h0Z"/>
    <path class="cls-6" d="M48.87,83.61c.41,0,.82.14,1.23.41s.41.69.41.96-.14.82-.41.96c-.27.27-.69.41-1.23.41h-.27l1.92,1.78h-1.78l-2.74-2.6h2.6c.14,0,.27,0,.41-.14l.14-.27s0-.27-.14-.27c0,0-.27-.14-.41-.14h-2.88v3.7h-1.37v-4.66h4.52v-.14Z"/>
    <path class="cls-6" d="M52.71,83.61v4.66h-1.23v-4.66h1.23Z"/>
    <path class="cls-6" d="M58.87,85.53l-.27.96h-3.43v.82h4.11l-.27.96h-5.07v-4.66h5.34l-.27.96h-3.7v.82h3.7l-.14.14Z"/>
    <path class="cls-6" d="M61.34,86.48c-.41,0-.82-.14-1.1-.41s-.41-.69-.41-.96.14-.69.41-.96.69-.41,1.1-.41h3.97l-.27.96h-3.84v.55h2.88c.41,0,.82.14,1.1.41s.41.69.41.96-.14.82-.41,1.1c-.27.27-.69.41-1.1.41h-4.25l.27-.96h3.84c.14,0,.27,0,.27-.14,0,0,.14-.14.14-.27s0-.27-.14-.27c0,0-.14-.14-.27-.14h-2.74v.14h.14Z"/>
  </g>
  <path class="cls-4" d="M72.72,10.15c.82,25.35-14.66,49.61-36.04,62.63C14.61,60.58.22,35.64.5,10.15c21.65-12.74,50.84-13.02,72.08,0h.14Z"/>
  <g>
    <path class="cls-6" d="M31.47,32.22c-.96,0-1.92.55-2.33,1.37l-4.52,9.59h3.01c1.23,0,2.33-.69,2.88-1.78l3.56-7.4h0c-.55-1.1-1.51-1.64-2.47-1.64h0l-.14-.14Z"/>
    <path class="cls-6" d="M34.07,33.72l1.78,3.7,2.47-5.21-.96-1.92c-1.37-2.88-5.48-2.88-6.85,0l-1.1,2.33c.55-.41,1.23-.69,1.92-.69,1.23,0,2.19.69,2.6,1.78h.14Z"/>
    <polygon class="cls-6" points="41.06 28.52 39.41 31.94 44.35 31.94 45.99 28.52 41.06 28.52"/>
    <path class="cls-6" d="M34.07,43.18h3.01c1.23,0,2.33-.69,2.88-1.78l3.97-8.5h-4.93l-4.93,10.28h0Z"/>
    <path class="cls-6" d="M40.65,41.67c-.27.69-.69,1.1-1.23,1.51h4.11l-1.78-3.84-1.1,2.33h0Z"/>
  </g>
  <line class="cls-3" x1="68.33" y1="52.36" x2="326.51" y2="52.36"/>
  <path class="cls-6" d="M324.46,52.36l-2.47,4.11h0l6.58-2.6c2.33-.55,4.66-.96,6.85-1.51-2.33-.55-4.66-.96-6.85-1.51l-6.58-2.6h0l2.47,4.11h0Z"/>
  <g>
    <path class="cls-6" d="M106.56,61.13h-.96l-1.51-2.33v2.47h-1.1v-4.25h1.23l1.92,3.15,1.92-3.15h1.1v4.25h-1.1v-2.47l-1.51,2.33h0Z"/>
    <path class="cls-6" d="M113.96,61.13h-2.6c-.41,0-.69,0-.96-.41-.27-.27-.41-.55-.41-.82v-.82c0-.27,0-.69.41-.82.27-.27.55-.41.96-.41h1.78c.41,0,.69,0,.96.41.27.27.41.55.41.82v.69h-3.43q0,.27.14.41h3.01l-.27.82h0v.14ZM113.42,59.21h0c0-.14,0-.27-.14-.41h-2.19s-.14.27-.14.41h2.47Z"/>
    <path class="cls-6" d="M119.03,61.13h-2.6c-.41,0-.69,0-.96-.41-.27-.27-.41-.55-.41-.82v-.82c0-.27,0-.69.41-.82.27-.27.55-.41.96-.41h1.78c.41,0,.69,0,.96.41.27.27.41.55.41.82v.69h-3.43q0,.27.14.41h3.01l-.27.82h0v.14ZM118.49,59.21h0c0-.14,0-.27-.14-.41h-2.19s-.14.27-.14.41h2.47Z"/>
    <path class="cls-6" d="M121.64,58.67v1.64h1.37l-.27.82h-1.1c-.41,0-.69,0-.82-.27s-.27-.41-.27-.82v-1.51h-.69l.27-.69h.41v-.55l1.1-.69v1.1h1.23l-.27.69h-1.1l.14.27Z"/>
    <path class="cls-6" d="M126.71,59.08c0-.27,0-.69.41-.82.27-.27.55-.41.96-.41h1.92c.41,0,.69,0,.96.41.27.27.41.55.41.82v.82c0,.27,0,.69-.41.82s-.55.41-.96.41h-1.78c-.41,0-.69,0-.96-.41-.27-.27-.41-.55-.41-.82v-.82h-.14ZM127.81,59.76s0,.27.14.27c0,0,.27.14.41.14h1.37c.14,0,.27,0,.41-.14s.14-.27.14-.27v-.55s0-.27-.14-.27c0,0-.27-.14-.41-.14h-1.37c-.14,0-.27,0-.41.14l-.14.27v.55h0Z"/>
    <path class="cls-6" d="M133.01,57.84v1.92c0,.14,0,.27.14.41h1.78v-2.47h1.1v3.29h-.82v-.41c-.41.27-.55.41-.96.41h-.96c-.41,0-.69,0-.96-.41-.27-.27-.41-.55-.41-.82v-2.06h1.1v.14Z"/>
    <path class="cls-6" d="M137.81,57.84v.41c.41-.27.69-.41.96-.41h1.23l-.27.82h-1.64v2.47h-1.1v-3.29s.82,0,.82,0Z"/>
    <path class="cls-6" d="M147.27,59.35c.14.14.27.41.27.69s0,.55-.27.69-.41.27-.82.27h-2.88l.27-.69h2.6c.14,0,0,0,0-.14v-.14h-1.78c-.27,0-.55,0-.82-.27s-.27-.41-.27-.69,0-.55.27-.69.41-.27.82-.27h2.6l-.27.69h-2.33v.27h1.64c.27,0,.55,0,.82.27h.14Z"/>
    <path class="cls-6" d="M148.22,59.08c0-.27,0-.69.41-.82.27-.27.55-.41.96-.41h1.92c.41,0,.69,0,.96.41.27.27.41.55.41.82v.82c0,.27,0,.69-.41.82s-.55.41-.96.41h-1.78c-.41,0-.69,0-.96-.41-.27-.27-.41-.55-.41-.82v-.82h-.14ZM149.18,59.76s0,.27.14.27c0,0,.27.14.41.14h1.37c.14,0,.27,0,.41-.14s.14-.27.14-.27v-.55s0-.27-.14-.27c0,0-.27-.14-.41-.14h-1.37c-.14,0-.27,0-.41.14l-.14.27v.55h0Z"/>
    <path class="cls-6" d="M154.53,56.61v.82h-1.1v-.82h1.1ZM154.53,57.84v3.29h-1.1v-3.29h1.1Z"/>
    <path class="cls-6" d="M156.58,56.34v4.8h-1.1v-4.25l1.1-.69v.14Z"/>
    <path class="cls-6" d="M161.79,61.13c-.27,0-.55,0-.82-.27s-.27-.41-.27-.69,0-.55.27-.69c.27-.27.41-.27.82-.27h1.51c.27,0,.41,0,.55.27v-.69h-2.74l.27-.69h2.6c.27,0,.55,0,.82.27.14.14.27.41.27.82v2.06h-.82v-.27c-.27.27-.55.27-.69.27h-1.51l-.27-.14ZM163.85,59.76h-2.06v.55h2.06v-.69h0v.14Z"/>
    <path class="cls-6" d="M168.92,61.13v-1.92c0-.14,0-.27-.14-.41s-.27,0-.41,0h-1.37v2.47h-1.1v-3.29h.82v.41c.41-.27.55-.41.96-.41h.96c.41,0,.69,0,.96.41.27.27.41.55.41.82v2.06h-1.1v-.14Z"/>
    <path class="cls-6" d="M174.4,61.13v-.41c-.41.27-.69.41-.96.41h-1.51c-.41,0-.69,0-.96-.41-.27-.27-.41-.55-.41-.82v-.82c0-.27,0-.69.41-.82.27-.27.55-.41.96-.41h1.51c.27,0,.55,0,.82.41v-1.37l1.1-.69v4.8h-.82l-.14.14ZM174.13,58.8h-2.33s-.14.27-.14.41v.55c0,.14,0,.27.14.41h2.33v-1.51.14Z"/>
    <path class="cls-6" d="M179.88,61.82h2.88v-1.1c-.27.27-.55.41-.82.41h-1.51c-.41,0-.69,0-.96-.41-.27-.27-.41-.55-.41-.82v-.82c0-.27.14-.69.41-.82.27-.27.55-.41.96-.41h1.51c.27,0,.55,0,.82.41v-.41h.96v3.7c0,.41,0,.69-.27.82-.14.14-.41.27-.82.27h-3.29l.27-.82h.27ZM182.9,58.8h-2.33s-.14.27-.14.41v.55c0,.14,0,.27.14.41h2.33v-1.51.14Z"/>
    <path class="cls-6" d="M185.64,57.84v.41c.41-.27.55-.41.96-.41h1.23l-.27.82h-1.64v2.47h-1.1v-3.29s.82,0,.82,0Z"/>
    <path class="cls-6" d="M188.24,59.08c0-.27.14-.69.41-.82.27-.27.55-.41.96-.41h1.92c.41,0,.69,0,.96.41s.41.55.41.82v.82c0,.27-.14.69-.41.82s-.55.41-.96.41h-1.92c-.41,0-.69,0-.96-.41-.27-.27-.41-.55-.41-.82v-.82h0ZM189.34,59.76s0,.27.14.27c0,0,.27.14.41.14h1.37c.14,0,.27,0,.41-.14l.14-.27v-.55s0-.27-.14-.27c0,0-.27-.14-.41-.14h-1.37c-.14,0-.27,0-.41.14l-.14.27v.55h0Z"/>
    <path class="cls-6" d="M194.54,57.84v1.92c0,.14,0,.27.14.41h1.78v-2.47h1.1v3.29h-.82v-.41c-.41.27-.55.41-.96.41h-.96c-.41,0-.69,0-.96-.41-.27-.27-.41-.55-.41-.82v-2.06h1.1v.14Z"/>
    <path class="cls-6" d="M201.53,61.13v-1.92c0-.14,0-.27-.14-.41s-.27,0-.41,0h-1.37v2.47h-1.1v-3.29h.82v.41c.41-.27.55-.41.82-.41h.96c.41,0,.69,0,.96.41.27.27.41.55.41.82v2.06h-1.1l.14-.14Z"/>
    <path class="cls-6" d="M207.15,61.13v-.41c-.41.27-.55.41-.96.41h-1.51c-.41,0-.69,0-.96-.41-.27-.27-.41-.55-.41-.82v-.82c0-.27.14-.69.41-.82.27-.27.55-.41.96-.41h1.51c.27,0,.55,0,.82.41v-1.37l1.1-.69v4.8h-.82l-.14.14ZM206.88,58.8h-2.33s-.14.27-.14.41v.55c0,.14,0,.27.14.41h2.33v-1.51.14Z"/>
    <path class="cls-6" d="M211.13,61.13h-1.37l-1.37-3.29h1.1l.96,2.47.82-2.33h1.1l.82,2.33.82-2.47h1.23l-1.37,3.29h-1.37l-.82-2.06-.82,2.06h.27Z"/>
    <path class="cls-6" d="M216.74,61.13c-.27,0-.55,0-.82-.27-.14-.27-.27-.41-.27-.69s0-.55.27-.69.55-.27.82-.27h1.51c.27,0,.41,0,.55.27v-.69c0-.14-.14,0-.27,0h-2.47l.27-.69h2.6c.27,0,.55,0,.82.27s.27.41.27.82v2.06h-.82v-.27c-.27.27-.55.27-.69.27h-1.51l-.27-.14ZM218.8,59.76h-2.06v.55h2.06v-.69h0v.14Z"/>
    <path class="cls-6" d="M222.09,58.67v1.64h1.37l-.27.82h-1.1c-.41,0-.69,0-.82-.27s-.27-.41-.27-.82v-1.51h-.69l.27-.69h.41v-.55l1.1-.69v1.1h1.23l-.27.69h-1.1l.14.27Z"/>
    <path class="cls-6" d="M227.84,61.13h-2.6c-.41,0-.69,0-.96-.41-.27-.27-.41-.55-.41-.82v-.82c0-.27.14-.69.41-.82.27-.27.55-.41.96-.41h1.78c.41,0,.69,0,.96.41.27.27.41.55.41.82v.69h-3.43q0,.27.14.41h3.01l-.27.82h0v.14ZM227.3,59.21h0c0-.14,0-.27-.14-.41h-2.19s-.14.27-.14.41h2.47Z"/>
    <path class="cls-6" d="M229.9,57.84v.41c.41-.27.55-.41.96-.41h1.23l-.27.82h-1.64v2.47h-1.1v-3.29s.82,0,.82,0Z"/>
    <path class="cls-6" d="M236.75,57.84v.41c.41-.27.55-.41.96-.41h1.51c.41,0,.69,0,.96.41s.41.55.41.82v.82c0,.27-.14.69-.41.82s-.55.41-.96.41h-1.51c-.27,0-.55,0-.82-.41v1.37l-1.1.69v-4.8h.82l.14-.14ZM236.89,60.31h2.33s.14-.27.14-.41v-.55c0-.14,0-.27-.14-.41h-2.33v1.51h0v-.14Z"/>
    <path class="cls-6" d="M242.1,57.84v.41c.41-.27.55-.41.96-.41h1.23l-.27.82h-1.64v2.47h-1.1v-3.29s.82,0,.82,0Z"/>
    <path class="cls-6" d="M244.56,59.08c0-.27.14-.69.41-.82.27-.27.55-.41.96-.41h1.92c.41,0,.69,0,.96.41s.41.55.41.82v.82c0,.27-.14.69-.41.82s-.55.41-.96.41h-1.92c-.41,0-.69,0-.96-.41-.27-.27-.41-.55-.41-.82v-.82h0ZM245.66,59.76s0,.27.14.27c0,0,.27.14.41.14h1.37c.14,0,.27,0,.41-.14l.14-.27v-.55s0-.27-.14-.27c0,0-.27-.14-.41-.14h-1.37c-.14,0-.27,0-.41.14l-.14.27v.55h0Z"/>
    <path class="cls-6" d="M252.51,57.16h-1.1v.69h1.23l-.27.69h-.96v2.47h-1.1v-2.47h-.69l.27-.69h.41v-.27c0-.41,0-.82.41-1.1.27-.27.55-.27,1.1-.27h1.23l-.27.82h0l-.27.14Z"/>
    <path class="cls-6" d="M256.9,61.13h-2.6c-.41,0-.69,0-.96-.41-.27-.27-.41-.55-.41-.82v-.82c0-.27.14-.69.41-.82.27-.27.55-.41.96-.41h1.78c.41,0,.69,0,.96.41.27.27.41.55.41.82v.69h-3.43q0,.27.14.41h3.01l-.27.82h0v.14ZM256.35,59.21h0c0-.14,0-.27-.14-.41h-2.19s-.14.27-.14.41h2.47Z"/>
    <path class="cls-6" d="M261.56,59.35c.14.14.27.41.27.69s0,.55-.27.69-.41.27-.82.27h-2.88l.27-.69h2.6v-.27c0-.14,0,0-.14,0h-1.64c-.27,0-.55,0-.82-.27s-.27-.41-.27-.69,0-.55.27-.69.41-.27.82-.27h2.6l-.27.69h-2.33v.27h1.64c.27,0,.55,0,.82.27h.14Z"/>
    <path class="cls-6" d="M266.08,59.35c.14.14.27.41.27.69s0,.55-.27.69-.41.27-.82.27h-2.88l.27-.69h2.6v-.27h-1.78c-.27,0-.55,0-.82-.27s-.27-.41-.27-.69,0-.55.27-.69.41-.27.82-.27h2.6l-.27.69h-2.33v.27h1.64c.27,0,.55,0,.82.27h.14Z"/>
    <path class="cls-6" d="M268.13,56.61v.82h-1.1v-.82h1.1ZM268.13,57.84v3.29h-1.1v-3.29h1.1Z"/>
    <path class="cls-6" d="M268.96,59.08c0-.27.14-.69.41-.82.27-.27.55-.41.96-.41h1.92c.41,0,.69,0,.96.41s.41.55.41.82v.82c0,.27-.14.69-.41.82s-.55.41-.96.41h-1.92c-.41,0-.69,0-.96-.41-.27-.27-.41-.55-.41-.82v-.82h0ZM269.92,59.76s0,.27.14.27c0,0,.27.14.41.14h1.37c.14,0,.27,0,.41-.14l.14-.27v-.55s0-.27-.14-.27c0,0-.27-.14-.41-.14h-1.37c-.14,0-.27,0-.41.14l-.14.27v.55h0Z"/>
    <path class="cls-6" d="M277.32,61.13v-1.92c0-.14,0-.27-.14-.41s-.27,0-.41,0h-1.37v2.47h-1.1v-3.29h.82v.41c.41-.27.55-.41.82-.41h.96c.41,0,.69,0,.96.41.27.27.41.55.41.82v2.06h-1.1l.14-.14Z"/>
    <path class="cls-6" d="M280.19,61.13c-.27,0-.55,0-.82-.27-.14-.27-.27-.41-.27-.69s0-.55.27-.69c.14-.27.55-.27.82-.27h1.51c.27,0,.41,0,.55.27v-.69h-2.74l.27-.69h2.6c.27,0,.55,0,.82.27s.27.41.27.82v2.06h-.82v-.27c-.27.27-.55.27-.69.27h-1.51l-.27-.14ZM282.25,59.76h-2.06v.55h2.06v-.69h0v.14Z"/>
    <path class="cls-6" d="M285.26,56.34v4.8h-1.1v-4.25l1.1-.69v.14Z"/>
    <path class="cls-6" d="M290.88,58.67v1.64h1.37l-.27.82h-1.1c-.41,0-.69,0-.82-.27s-.27-.41-.27-.82v-1.51h-.69l.27-.69h.41v-.55l1.1-.69v1.1h1.23l-.27.69h-1.1l.14.27Z"/>
    <path class="cls-6" d="M296.64,61.13h-2.6c-.41,0-.69,0-.96-.41-.27-.27-.41-.55-.41-.82v-.82c0-.27.14-.69.41-.82.27-.27.55-.41.96-.41h1.78c.41,0,.69,0,.96.41.27.27.41.55.41.82v.69h-3.43q0,.27.14.41h3.01l-.27.82h0v.14ZM296.09,59.21h0c0-.14,0-.27-.14-.41h-2.19s-.14.27-.14.41h2.47Z"/>
    <path class="cls-6" d="M298.69,61.13c-.27,0-.55,0-.82-.27-.14-.27-.27-.41-.27-.69s0-.55.27-.69.55-.27.82-.27h1.51c.27,0,.41,0,.55.27v-.69c0-.14-.14,0-.27,0h-2.47l.27-.69h2.6c.27,0,.55,0,.82.27s.27.41.27.82v2.06h-.82v-.27c-.27.27-.55.27-.69.27h-1.51l-.27-.14ZM300.89,59.76h-2.06v.55h2.06v-.69h0v.14Z"/>
    <path class="cls-6" d="M307.88,57.84c.41,0,.69,0,.96.41.27.27.41.55.41.82v2.06h-1.1v-1.92c0-.14,0-.27-.14-.41s-.27,0-.41,0h-1.1v2.47h-1.1v-1.92c0-.14,0-.27-.14-.41s-.27,0-.41,0h-1.1v2.47h-1.1v-3.29h.82v.41c.41-.27.55-.41.96-.41h.69c.41,0,.69,0,.96.41.14-.27.41-.41.69-.41h.96l.14-.27Z"/>
    <path class="cls-6" d="M311.58,60.17v.96h-1.1v-.96h1.1Z"/>
  </g>
  <g>
    <g>
      <g>
        <path class="cls-6" d="M220.42,43.83c1.27-.52,3.4-.52,4.49-1.33-1.64.59-5.71.58-6.07,1.18-.24.41-.66,1.38-.32,1.84.47.63,2.53,2.94,2.62,3.59.1.74.68,1.12,1.41,1.05.34-.03.82.47,1.11.65.65.39,3.28,1.39,2.55-.18-.25-.55-.47-1.25-.88-1.71-.39-.44-1.1.23-1.55-.05-.44-.28-3.68-3.01-3.39-3.65.25-.55,3.07.4,4.47.78,1.17.32,2.9.99,3.65.49.53-.36,1.21-1.38,1.23-2.12-1.87,3.68-7.36-.36-9.32-.53Z"/>
        <path class="cls-6" d="M223.02,38.24c-1.08-1.05-4.17-1.79-5.8-.91,2.1-.37,3.6.6,4.46,1.81.87,1.22-.34,4.32.96,3.9-.67-1.41,1.88-3.34.39-4.8Z"/>
        <path class="cls-6" d="M219.63,45.14c.95.76,3.61,1.65,5.33,1.43-1.62-.35-3.82-.86-5.33-1.43Z"/>
      </g>
      <g>
        <path class="cls-6" d="M213.91,34.17c-.94.72-.06,1.53-.8,2.32.43-1.12-.58-1.93.8-2.32Z"/>
        <path class="cls-6" d="M212.4,33.35c.34-.36.82-.35,1.05-.81.5-1,1.84-2.36,2.12-2.42.23-.05.15,1.34-.21,2.04-.36.69-1.19.89-.65,1.64-.78-.52-.04-1.09.22-1.36.24-.24.33-.5.39-.88-.23.49-.8,1.01-.95,1.01-.08,0,.2-.61.34-.89.15-.3.4-.52.52-.87-.39.38-.85.78-1.1,1.19-.3.49-.28.75-.65,1.03-.37.27-.98.38-1.32,1.47.11-.07.36-.12.48-.13-.3.15-1.03.52-1.13.93-.1.41.43,1.04.55,1.35.2.49.43,1.25.25,1.83-.04-1.35-.55-1.79-.83-2.17-.44.47-1.04,1.67-1.34,2.47-.23.61-.36,1.38-.75,1.82-.44.5-.38.96-.23,1.07.15.11.34.08.37-.11.03-.15-.4-.24-.14-.47.19-.17.58.1.59.36.04.56-.47,1.07.14,1.37.56.27.2-.94,1.57-1.7-.18.71-.32,1.77-.18,1.82.14.05.16-.15.26-.16.22,0,.35-.1.32-.38-.05-.5-.14-.83.38-1.35-.09.19-.1.31-.1.45.54-.42.79-1.52,1.44-1.88-.63-.15-.67.43-.92.51.17-.53.02-.89-.21-1.14,1.88.58,3.73-.28,3.67-2,1.13,2.24-.9,2.46-1.68,2.97-.59.38-.97.59-1.42,1.01-.47.43-.76.7-.85,1.01-.05.2.1.35.11.58,0,.24-.12.42-.21.5-.2.19-.44.15-.64.22-.16.06-.55.43-.64.17-.03-.1.07-.36.1-.69.03-.34.03-.6.13-.89-.53.54-.41,1.27-.64,1.43-.23.16-.67-.09-.86-.36-.22-.3-.19-.55-.33-.77-.14-.23-.59-.45-.54-.9.05-.45.46-.71.63-1.18.16-.44.22-.7.53-1.62.28-.84.73-1.84,1.16-2.59-.17-.73.34-1.13.51-1.21.37-.59.39-.98.71-1.32Z"/>
        <path class="cls-6" d="M215.6,32.46s.66-1.95.44-1.99c-.22-.03-.49.42-.49.42,0,0-.03.7-.11.92-.08.22-.46.69-.46.69l.62-.04Z"/>
        <path class="cls-6" d="M210.13,40.84c.19.2.22.47.3.49.07.03.39-.31.51-.41-.27.49-.7,1.05-.77,1-.07-.04.33-1.41-.76-1.02.22-.2.53-.26.72-.06Z"/>
        <path class="cls-6" d="M231.2,28.27c-1.68,2.47-12.4-5.49-14.92,2.78,5.56-3.98,15.13,1.46,14.92-2.78Z"/>
        <path class="cls-6" d="M232.04,33.6c.29-2.6-3.35-5.23-7.53-3.56,3.55.25,6.24,1.92,7.53,3.56Z"/>
        <path class="cls-6" d="M215.68,31.79c-.32.21-.9.89-1.04,1.18,7.24-3.74,12.17-1.47,16.6.61-2.94-2.43-10.17-5.44-15.56-1.79Z"/>
        <path class="cls-6" d="M213.23,32.59c.55-2.04,3.26-3.53,5.61-4.1-3.42-1.07-8.92,2.33-5.61,4.1Z"/>
        <path class="cls-6" d="M212.89,32.82c-2.18-.21-.92-2.59,1.43-3.16-4.56.47-6.07,5.39-1.43,3.16Z"/>
        <path class="cls-6" d="M214.19,38.45c.2-.43.27-.87.27-1.3.16.27.19.83-.27,1.3Z"/>
        <path class="cls-6" d="M214.84,37.23c.28,0,.55.06.81-.1.35-.21.66-.53.95-.81-.47.61-.87,1.27-1.72,1.16-.13-.02-.23-.26-.05-.26Z"/>
        <path class="cls-6" d="M212.07,36.1c.43.41,1.25-.4.89-1.12-.07.14-.48.18-.73.37-.25.19-.44.48-.16.75ZM212.87,35.67c.02-.16-.02-.33-.02-.36,0-.03.08-.1.11-.09.03.01-.02.31-.09.45ZM212.64,35.58c.05-.01.11-.04.18-.12-.02.22-.11.37-.25.54.04-.14.06-.29.07-.41ZM212.63,35.26c-.22.1-.47.36-.6.68,0-.23.12-.57.6-.68Z"/>
      </g>
    </g>
    <g>
      <path class="cls-6" d="M228.53,42.14h4.33v.75h-5.15v-8.09h5.02v.75h-4.19v2.75h3.92v.75h-3.92v3.07Z"/>
      <path class="cls-6" d="M242.45,42.89h-4.63c-.59,0-1.13-.1-1.63-.31-.5-.21-.93-.49-1.3-.86-.37-.37-.65-.81-.86-1.31-.21-.51-.31-1.06-.31-1.66s.1-1.16.31-1.66c.21-.51.49-.94.86-1.31.37-.37.8-.66,1.3-.86.5-.21,1.04-.31,1.63-.31s1.12.1,1.62.31c.5.21.93.49,1.3.86.37.37.65.81.86,1.31.21.51.31,1.06.31,1.66,0,.73-.15,1.39-.45,1.97-.3.58-.78,1.05-1.45,1.4v.02h2.45v.75ZM234.62,38.74c0,.45.07.88.22,1.29.14.41.35.77.63,1.08.27.31.61.56,1.01.75.4.19.85.28,1.35.28s.94-.09,1.34-.28c.4-.19.73-.44,1.01-.75.27-.31.48-.67.63-1.08.14-.41.22-.84.22-1.29s-.07-.88-.22-1.29c-.14-.41-.35-.77-.63-1.08-.27-.31-.61-.56-1.01-.75-.4-.19-.84-.28-1.34-.28s-.95.09-1.35.28c-.4.19-.73.44-1.01.75-.27.31-.48.67-.63,1.08-.14.41-.22.84-.22,1.29Z"/>
      <path class="cls-6" d="M249.38,39.87c0,.34-.04.69-.12,1.07-.08.38-.23.73-.45,1.05-.22.32-.52.58-.91.79-.38.21-.88.31-1.48.31s-1.1-.1-1.49-.31c-.38-.21-.68-.47-.9-.79-.22-.32-.37-.67-.45-1.05-.08-.38-.12-.73-.12-1.07v-5.07h.82v4.98c0,.39.04.72.11,1,.08.28.18.51.3.7.13.19.27.34.42.45.16.11.31.2.47.26.16.06.31.1.45.12.14.02.27.03.38.03.1,0,.22,0,.37-.03.15-.02.3-.06.46-.12.16-.06.31-.15.47-.26.16-.11.3-.26.42-.45.13-.19.23-.42.3-.7.08-.28.11-.61.11-1v-4.98h.82v5.07Z"/>
      <path class="cls-6" d="M257.02,39.87c0,.34-.04.69-.12,1.07-.08.38-.23.73-.45,1.05-.22.32-.52.58-.91.79-.38.21-.88.31-1.48.31s-1.1-.1-1.49-.31c-.38-.21-.68-.47-.9-.79-.22-.32-.37-.67-.45-1.05-.08-.38-.12-.73-.12-1.07v-5.07h.82v4.98c0,.39.04.72.11,1,.08.28.18.51.3.7.13.19.27.34.42.45.16.11.31.2.47.26.16.06.31.1.45.12.14.02.27.03.38.03.1,0,.22,0,.37-.03.15-.02.3-.06.46-.12.16-.06.31-.15.47-.26.16-.11.3-.26.42-.45.13-.19.23-.42.3-.7.08-.28.11-.61.11-1v-4.98h.82v5.07Z"/>
      <path class="cls-6" d="M262.7,36.14c-.36-.53-.88-.79-1.57-.79-.21,0-.42.03-.63.09-.21.06-.39.14-.55.26-.16.12-.3.27-.39.46-.1.19-.15.41-.15.66,0,.37.1.65.31.85.21.2.46.37.77.5.3.13.64.25,1,.35.36.1.7.24,1,.41.3.17.56.4.77.68.21.28.31.67.31,1.15,0,.37-.08.7-.23.99-.16.29-.36.54-.62.74-.26.2-.54.35-.86.46-.32.11-.63.16-.95.16-.5,0-.97-.09-1.41-.28-.45-.19-.82-.49-1.14-.92l.75-.54c.17.3.42.54.73.71.31.18.68.27,1.11.27.21,0,.41-.03.62-.1.21-.06.39-.16.55-.29.16-.13.3-.28.4-.46.11-.18.16-.39.16-.63,0-.28-.06-.52-.18-.7-.12-.19-.27-.34-.47-.47-.19-.13-.42-.23-.66-.31-.25-.08-.5-.17-.77-.25-.26-.08-.52-.18-.77-.29-.25-.11-.47-.24-.66-.41-.19-.16-.35-.37-.47-.62-.12-.25-.18-.56-.18-.93s.07-.73.22-1.02c.15-.29.35-.53.59-.72.25-.19.53-.33.84-.42.31-.09.63-.14.96-.14.46,0,.87.07,1.25.22.37.14.72.4,1.04.77l-.72.56Z"/>
    </g>
  </g>
  <g>
    <g>
      <g>
        <polygon class="cls-5" points="101.04 32.27 101.04 40.58 98.94 40.58 98.94 36.89 94.66 40.58 91.43 40.58 101.04 32.27"/>
        <g class="cls-17">
          <rect class="cls-6" x="91.43" y="32.27" width="9.61" height="8.33"/>
        </g>
      </g>
      <g>
        <rect class="cls-6" x="108.99" y="32.26" width="2.1" height="8.33"/>
        <g class="cls-10">
          <rect class="cls-6" x="108.99" y="32.26" width="2.1" height="8.33"/>
        </g>
      </g>
      <g>
        <rect class="cls-6" x="102.3" y="32.26" width="2.1" height="8.33"/>
        <g class="cls-13">
          <rect class="cls-6" x="102.3" y="32.26" width="2.1" height="8.33"/>
        </g>
      </g>
      <g>
        <rect class="cls-6" x="101.79" y="32.26" width="6.38" height="2.1"/>
        <g class="cls-11">
          <rect class="cls-6" x="101.79" y="32.26" width="6.38" height="2.1"/>
        </g>
      </g>
      <g>
        <rect class="cls-6" x="101.79" y="35.39" width="6.38" height="2.1"/>
        <g class="cls-12">
          <rect class="cls-6" x="101.79" y="35.39" width="6.38" height="2.1"/>
        </g>
      </g>
      <g>
        <rect class="cls-6" x="101.79" y="38.51" width="6.38" height="2.1"/>
        <g class="cls-16">
          <rect class="cls-6" x="101.79" y="38.51" width="6.38" height="2.1"/>
        </g>
      </g>
      <g>
        <polyline class="cls-5" points="99.63 37.23 99.63 39.43 97.02 39.43"/>
        <g class="cls-15">
          <rect class="cls-6" x="97.71" y="38.47" width="2.6" height="1.35"/>
        </g>
      </g>
    </g>
    <polygon class="cls-5" points="94.84 41.53 95.74 45.67 99.08 41.5 94.84 41.53"/>
    <g>
      <path class="cls-5" d="M105.42,48.24c6.38-.44,11.2-5.96,10.77-12.33-.44-6.38-5.96-11.2-12.33-10.77-6.38.43-11.2,5.95-10.77,12.33v.05l3.36-2.9c1.02-3.25,4.01-6.19,7.61-6.44,4.7-.32,8.76,3.23,9.07,7.92.32,4.7-3.23,8.76-7.92,9.07-2.87.2-5.5-1.06-7.19-3.13-.36-.45-.9.15-1.17-.36l-.99.13-.45.45.27.82c.35.55-.09.81.34,1.3,2.3,2.57,5.71,4.09,9.41,3.84"/>
      <g class="cls-14">
        <rect class="cls-6" x="93.07" y="25.11" width="23.16" height="23.16" transform="translate(-2.25 7.2) rotate(-3.9)"/>
      </g>
    </g>
  </g>
  <g>
    <polygon class="cls-5" points="329.58 43.37 327.03 42.07 327.03 44.68 329.58 43.37"/>
    <path class="cls-6" d="M313.86,38.45l1.05-1.56h-6.52s-3,4.46-3,4.46l.3.88,5.86.02c.41-.61.83-1.23,1.24-1.84h-2.41s-.34.5-.34.5l-.41.25h-1.68s.82-1.22.82-1.22h1.78s.74-1.09.74-1.09h-1.78s.52-.83.52-.83c.5-.01.96,0,1.48,0l.08.25-.12.19h2.4Z"/>
    <path class="cls-5" d="M313.81,38.4l.93-1.42h-6.26s-.61.91-.61.91l-2.31,3.48.26.72,5.61.04c.36-.53.83-1.19,1.06-1.62h-2.03l-.26.46-.5.28-1.99-.03.96-1.38h.57c.59,0,.71.01,1.29.02l.61-.95h-1.84s.57-.95.57-.95c0,0,.36,0,.87,0h.54s.24.01.24.01l.11.33-.09.12h2.26Z"/>
    <path class="cls-6" d="M303.44,42.56l4.04-6s1.64.02,2.94.02l1.08-1.69-9.57.04-1.08,1.61,3.39-.02-3.93,6.06h2.04s1.09-.02,1.09-.02Z"/>
    <polygon class="cls-5" points="303.71 41.96 305.66 39.07 302.86 39.06 300.92 41.95 303.71 41.96 303.71 41.96"/>
    <polygon class="cls-6" points="317.23 38.03 318.67 38.03 318.75 38.27 318.63 38.46 321.04 38.47 321.47 37.83 321.13 36.89 315.58 36.88 312.55 41.37 312.85 42.26 317.82 42.28 319.32 41.39 319.96 40.43 317.55 40.43 317.21 40.92 316.79 41.18 315.11 41.17 317.23 38.03 317.23 38.03"/>
    <polygon class="cls-6" points="319.33 42.25 321.76 42.26 323.18 40.15 325.38 40.15 323.95 42.27 326.38 42.28 330.02 36.89 327.57 36.89 326.14 39.04 323.94 39.03 325.41 36.89 322.96 36.89 319.33 42.25"/>
    <path class="cls-5" d="M303.7,41.83l3.74-5.45s1.37.06,2.87.06l.89-1.44-9.13.06-1.01,1.35,3.39-.04-3.55,5.44h2.79Z"/>
    <polygon class="cls-5" points="319.32 38.39 320.98 38.39 321.37 37.83 321.12 36.99 315.59 36.98 312.62 41.36 312.91 42.19 317.84 42.19 319.24 41.34 319.81 40.49 317.6 40.49 317.3 40.99 316.83 41.28 314.9 41.25 317.17 37.95 318.72 37.93 318.84 38.26 318.73 38.41 319.32 38.39"/>
    <polygon class="cls-5" points="319.4 42.21 321.74 42.21 323.13 40.1 325.46 40.1 324.07 42.21 326.35 42.21 329.89 36.96 327.6 36.96 326.18 39.1 323.83 39.1 325.26 36.94 322.97 36.95 319.4 42.21"/>
    <path class="cls-6" d="M283.02,42.23c.24-.35,2.64-3.92,2.88-4.26h1.5s.75-1.07.75-1.07h-5.44s-.83,1.04-.83,1.04l1.57.02-2.87,4.26h2.44ZM275.87,38.52l.73.41.73.41.73.41-.13.2-.13.2-.13.2-.13.2.37.07.37.07.37.07.37.07c-.33,0-.67,0-1.01,0s-.7,0-1.05,0-.71,0-1.07,0-.72,0-1.08,0l.19-.26.19-.26.19-.26.19-.26h-.65s-.65,0-.65,0h-.65s-.65,0-.65,0l-.46.6-.46.6-.46.6-.46.6h2.07s2.07.01,2.07.01h2.07s2.07.01,2.07.01l.58-.87.58-.87.58-.87.58-.87c-.47-.21-2.28-1.01-2.72-1.22-.5-.24-2.09-1.01-2.56-1.03.29.01,3.32-.03,3.62,0l-.16.28h2.65s1.37-1.76,1.37-1.76l-5.61.02h-2.1s-1.81,1.25-1.81,1.25l.76.11-.82,1.23,1.57.9ZM287.28,41.07h.65s.65,0,.65,0h.65s.65,0,.65,0l-.07.29-.07.29-.07.29-.07.29h.61s.61,0,.61,0h.61s.61,0,.61,0l.32-1.35.32-1.35.32-1.35.28-1.31-3.34-.02-.34.25-.33.28-.33.28-.33.28-1.18,1.06-1.18,1.06-1.18,1.06-1.18,1.06h.61s.61,0,.61,0h.61s.61,0,.61,0l.33-.29.33-.29.33-.29.33-.29h-.09s-.09,0-.09,0h-.09s-.09,0-.09,0h0ZM288.88,39.95l.41-.37.41-.37.41-.37.41-.37-.07.3-.07.3-.07.3-.07.3v.06s-.03.06-.03.06v.06s-.03.06-.03.06h-.35s-.35,0-.35,0h-.35s-.35,0-.35,0l.44-.37.44-.37.44-.37.44-.37-.41.37-.41.37-.41.37-.41.37h0ZM296.47,42.27h.77s.77,0,.77,0h.77s.77,0,.77,0l.89-1.35.89-1.35.89-1.35.89-1.35h-.59s-.59,0-.59,0h-.59s-.59,0-.59,0l-.55.82-.55.82-.55.82-.55.82.08-.82.08-.82.08-.82.08-.82h-.79s-.79,0-.79,0h-.79s-.79,0-.79,0l-.91,1.35-.91,1.35-.91,1.35-.91,1.35h.61s.61,0,.61,0h.61s.61,0,.61,0l.57-.87.57-.87.57-.87.57-.87-.08.87-.08.87-.08.87-.08.87h0Z"/>
    <path class="cls-5" d="M327.35,44.14l-26.76.03c-.59,0-.89-.72-.59-1.28l.6-.38,26.61.03.14,1.59Z"/>
    <polyline class="cls-5" points="301.34 40.99 299.69 43.21 300.13 44.17 303.74 44.16"/>
  </g>
  <ellipse class="cls-2" cx="162.96" cy="38.9" rx="37.07" ry="8.01"/>
  <path class="cls-6" d="M137.9,43.21l1.51-8.5h6.79l-.27,1.51h-4.93l-.33,1.9h4.38l-.26,1.5h-4.39l-.36,2.07h5.02l-.27,1.52h-6.88Z"/>
  <path class="cls-6" d="M149.98,43.35c-1.18,0-2.09-.27-2.71-.8-.63-.53-.94-1.37-.94-2.51,0-.22.01-.44.03-.66.02-.21.05-.43.08-.64.16-.88.44-1.63.86-2.26.42-.63.96-1.11,1.62-1.44.66-.33,1.43-.5,2.31-.5.69,0,1.29.1,1.82.29.52.19.94.49,1.23.88.3.39.45.89.45,1.48,0,.12,0,.23-.02.35-.01.12-.03.24-.04.36h-1.87c.02-.07.03-.15.03-.22,0-.07,0-.13,0-.19,0-.32-.07-.59-.2-.8-.14-.21-.32-.37-.56-.48-.24-.11-.53-.16-.87-.16-.4,0-.75.06-1.06.19s-.58.3-.81.52c-.23.22-.42.49-.58.81-.15.32-.27.68-.34,1.07-.03.17-.06.33-.09.46-.02.13-.04.25-.06.35-.01.1-.02.19-.02.27,0,.08,0,.16,0,.24,0,.41.07.76.2,1.03.13.27.33.48.61.61.27.14.61.2,1.02.2.43,0,.81-.07,1.15-.21.34-.14.62-.34.84-.61.22-.27.37-.6.43-1h1.81c-.12.75-.39,1.38-.79,1.87-.4.5-.9.87-1.51,1.11-.6.24-1.27.37-2.01.37Z"/>
  <path class="cls-6" d="M158.97,43.35c-.82,0-1.52-.12-2.09-.37-.58-.25-1.02-.62-1.32-1.12-.3-.5-.45-1.12-.45-1.86,0-.19,0-.38.02-.57.01-.19.04-.38.07-.56.16-.91.45-1.69.87-2.34.42-.65.97-1.14,1.66-1.48.69-.34,1.5-.51,2.44-.51.81,0,1.5.12,2.08.37.58.25,1.02.62,1.33,1.12s.46,1.12.46,1.86c0,.18,0,.36-.02.55-.02.18-.04.36-.07.55-.14.92-.43,1.7-.86,2.35-.43.65-.99,1.15-1.68,1.49-.69.34-1.5.51-2.44.51ZM158.99,41.83c.42,0,.8-.06,1.13-.18.33-.12.63-.3.88-.53.25-.23.46-.52.62-.86.16-.34.28-.72.35-1.15.02-.16.05-.29.07-.41.02-.12.04-.22.04-.3,0-.09.01-.16.02-.23,0-.07,0-.13,0-.2,0-.4-.07-.74-.22-1.03-.15-.29-.37-.51-.68-.66-.3-.15-.68-.22-1.12-.22-.41,0-.79.06-1.12.18-.33.12-.63.3-.87.53-.25.23-.45.52-.61.86-.16.34-.28.72-.35,1.15-.03.16-.06.29-.07.41-.01.12-.02.22-.03.3,0,.09-.01.16-.02.23,0,.07,0,.13,0,.2,0,.4.07.74.22,1.02.15.29.37.5.67.66.3.15.66.23,1.09.23Z"/>
  <path class="cls-6" d="M170.36,33.99s0-.01,0-.02l3-6.45,2.65-.14-6.88,15.83h-2.98s-2.88-10.66-2.88-10.66l3.38-.03.08.59c.02.13.21,1.26.26,1.52s.11.59.17.87.44,2.36.52,2.68l.29,1.43"/>
  <path class="cls-6" d="M170.25,43.21l4.75-8.5h2.28l1.77,8.5h-1.9l-.32-1.67h-3.73l-.9,1.67h-1.95ZM173.89,40.05h2.65l-.38-2.06c-.02-.15-.05-.3-.07-.45-.02-.15-.05-.3-.08-.45-.03-.15-.05-.29-.07-.42-.02-.13-.03-.25-.05-.35h-.06c-.08.17-.18.35-.28.56-.1.21-.2.42-.3.62-.1.2-.19.37-.26.51l-1.09,2.03Z"/>
  <path class="cls-6" d="M183.11,43.35c-1.18,0-2.09-.27-2.71-.8-.63-.53-.94-1.37-.94-2.51,0-.22.01-.44.03-.66.02-.21.05-.43.08-.64.16-.88.44-1.63.86-2.26.42-.63.96-1.11,1.62-1.44.66-.33,1.43-.5,2.31-.5.69,0,1.29.1,1.82.29.52.19.94.49,1.23.88.3.39.45.89.45,1.48,0,.12,0,.23-.02.35-.01.12-.03.24-.04.36h-1.87c.02-.07.03-.15.03-.22,0-.07,0-.13,0-.19,0-.32-.07-.59-.2-.8s-.32-.37-.56-.48c-.24-.11-.53-.16-.87-.16-.4,0-.75.06-1.06.19s-.58.3-.81.52c-.23.22-.42.49-.58.81-.15.32-.27.68-.34,1.07-.03.17-.06.33-.09.46-.02.13-.04.25-.06.35-.01.1-.02.19-.02.27,0,.08,0,.16,0,.24,0,.41.07.76.2,1.03.13.27.33.48.61.61.27.14.61.2,1.02.2.43,0,.81-.07,1.15-.21.34-.14.62-.34.84-.61.22-.27.37-.6.43-1h1.81c-.12.75-.39,1.38-.79,1.87-.4.5-.9.87-1.51,1.11-.6.24-1.27.37-2.01.37Z"/>
  <polygon class="cls-6" points="174.3 28.45 172 27.61 173.82 26.14 175.71 24.51 176.08 26.87 176.54 29.28 174.3 28.45"/>
</svg>